Commissioner-BlackLoud.ufo
<glyph name="dollar" format="2">
  <advance width="1176"/>
  <unicode hex="0024"/>
  <outline>
    <contour>
      <point x="562" y="-30" type="curve" smooth="yes"/>
      <point x="964" y="-30"/>
      <point x="1138" y="130"/>
      <point x="1138" y="414" type="curve" smooth="yes"/>
      <point x="1138" y="662"/>
      <point x="1032" y="762"/>
      <point x="710" y="852" type="curve" smooth="yes"/>
      <point x="540" y="900"/>
      <point x="464" y="906"/>
      <point x="464" y="958" type="curve" smooth="yes"/>
      <point x="464" y="1006"/>
      <point x="550" y="1030"/>
      <point x="644" y="1030" type="curve"/>
      <point x="678" y="1030"/>
      <point x="862" y="980"/>
      <point x="1034" y="920" type="curve"/>
      <point x="1064" y="1324" type="line"/>
      <point x="912" y="1354"/>
      <point x="682" y="1400"/>
      <point x="564" y="1400" type="curve" smooth="yes"/>
      <point x="208" y="1400"/>
      <point x="50" y="1224"/>
      <point x="50" y="956" type="curve" smooth="yes"/>
      <point x="50" y="690"/>
      <point x="188" y="590"/>
      <point x="424" y="526" type="curve" smooth="yes"/>
      <point x="610" y="476"/>
      <point x="726" y="466"/>
      <point x="726" y="406" type="curve" smooth="yes"/>
      <point x="726" y="360"/>
      <point x="664" y="332"/>
      <point x="542" y="332" type="curve"/>
      <point x="508" y="332"/>
      <point x="302" y="384"/>
      <point x="106" y="446" type="curve"/>
      <point x="74" y="34" type="line"/>
      <point x="248" y="2"/>
      <point x="468" y="-30"/>
    </contour>
    <contour>
      <point x="420" y="-274" type="curve"/>
      <point x="788" y="-274" type="line"/>
      <point x="778" y="2"/>
      <point x="766" y="308"/>
      <point x="764" y="384" type="curve"/>
      <point x="764" y="948" type="line"/>
      <point x="766" y="1024"/>
      <point x="778" y="1330"/>
      <point x="788" y="1606" type="curve"/>
      <point x="420" y="1606" type="line"/>
      <point x="430" y="1330"/>
      <point x="442" y="1024"/>
      <point x="444" y="948" type="curve"/>
      <point x="444" y="384" type="line"/>
      <point x="442" y="308"/>
      <point x="430" y="2"/>
    </contour>
  </outline>
</glyph>
<glyph name="parenleft" format="2">
  <advance width="882"/>
  <unicode hex="0028"/>
  <outline>
    <contour>
      <point x="522" y="-290" type="curve"/>
      <point x="872" y="-166" type="line"/>
      <point x="670" y="120"/>
      <point x="508" y="348"/>
      <point x="508" y="646" type="curve" smooth="yes"/>
      <point x="508" y="944"/>
      <point x="670" y="1172"/>
      <point x="872" y="1458" type="curve"/>
      <point x="522" y="1582" type="line"/>
      <point x="352" y="1358"/>
      <point x="60" y="1066"/>
      <point x="60" y="646" type="curve" smooth="yes"/>
      <point x="60" y="226"/>
      <point x="352" y="-66"/>
    </contour>
  </outline>
</glyph>
<glyph name="hyphen" format="2">
  <advance width="860"/>
  <unicode hex="002D"/>
  <outline>
    <contour>
      <point x="80" y="402" type="line"/>
      <point x="206" y="408"/>
      <point x="334" y="414"/>
      <point x="430" y="418" type="curve"/>
      <point x="526" y="414"/>
      <point x="654" y="408"/>
      <point x="780" y="402" type="curve"/>
      <point x="780" y="814" type="line"/>
      <point x="654" y="808"/>
      <point x="526" y="802"/>
      <point x="430" y="798" type="curve"/>
      <point x="334" y="802"/>
      <point x="206" y="808"/>
      <point x="80" y="814" type="curve"/>
    </contour>
  </outline>
</glyph>
<glyph name="slash" format="2">
  <advance width="970"/>
  <unicode hex="002F"/>
  <outline>
    <contour>
      <point x="-8" y="0" type="curve"/>
      <point x="480" y="0" type="line"/>
      <point x="522" y="148"/>
      <point x="556" y="272"/>
      <point x="608" y="456" type="curve"/>
      <point x="780" y="948" type="line"/>
      <point x="858" y="1138"/>
      <point x="910" y="1264"/>
      <point x="978" y="1426" type="curve"/>
      <point x="492" y="1426" type="line"/>
      <point x="448" y="1272"/>
      <point x="412" y="1142"/>
      <point x="358" y="952" type="curve"/>
      <point x="184" y="456" type="line"/>
      <point x="108" y="278"/>
      <point x="56" y="152"/>
    </contour>
  </outline>
</glyph>
<glyph name="zero" format="2">
  <advance width="1356"/>
  <unicode hex="0030"/>
  <outline>
    <contour>
      <point x="684" y="-30" type="curve" smooth="yes"/>
      <point x="1108" y="-30"/>
      <point x="1296" y="262"/>
      <point x="1296" y="690" type="curve" smooth="yes"/>
      <point x="1296" y="1106"/>
      <point x="1118" y="1412"/>
      <point x="674" y="1412" type="curve" smooth="yes"/>
      <point x="232" y="1412"/>
      <point x="60" y="1106"/>
      <point x="60" y="688" type="curve" smooth="yes"/>
      <point x="60" y="296"/>
      <point x="222" y="-30"/>
    </contour>
    <contour>
      <point x="680" y="344" type="curve"/>
      <point x="572" y="358"/>
      <point x="534" y="490"/>
      <point x="534" y="690" type="curve" smooth="yes"/>
      <point x="534" y="898"/>
      <point x="578" y="1022"/>
      <point x="680" y="1036" type="curve"/>
      <point x="778" y="1022"/>
      <point x="824" y="896"/>
      <point x="824" y="690" type="curve" smooth="yes"/>
      <point x="824" y="490"/>
      <point x="784" y="358"/>
    </contour>
  </outline>
</glyph>
<glyph name="one" format="2">
  <advance width="980"/>
  <unicode hex="0031"/>
  <outline>
    <contour>
      <point x="134" y="750" type="line"/>
      <point x="290" y="830"/>
      <point x="442" y="908"/>
      <point x="602" y="990" type="curve"/>
      <point x="620" y="1392" type="line"/>
      <point x="416" y="1312"/>
      <point x="216" y="1234"/>
      <point x="12" y="1154" type="curve"/>
    </contour>
    <contour>
      <point x="344" y="0" type="curve"/>
      <point x="876" y="0" type="line"/>
      <point x="864" y="140"/>
      <point x="854" y="258"/>
      <point x="840" y="426" type="curve"/>
      <point x="840" y="898" type="line"/>
      <point x="852" y="1056"/>
      <point x="864" y="1214"/>
      <point x="876" y="1380" type="curve"/>
      <point x="620" y="1392" type="line"/>
      <point x="360" y="1194" type="line"/>
      <point x="366" y="1062"/>
      <point x="374" y="932"/>
      <point x="380" y="800" type="curve"/>
      <point x="380" y="426" type="line"/>
      <point x="366" y="258"/>
      <point x="356" y="140"/>
    </contour>
  </outline>
</glyph>
<glyph name="two" format="2">
  <advance width="1170"/>
  <unicode hex="0032"/>
  <outline>
    <contour>
      <point x="74" y="0" type="line"/>
      <point x="1100" y="0" type="line"/>
      <point x="1100" y="432" type="line"/>
      <point x="984" y="418"/>
      <point x="870" y="404"/>
      <point x="746" y="388" type="curve"/>
      <point x="530" y="388" type="line"/>
      <point x="582" y="302" type="line"/>
      <point x="752" y="420" type="line"/>
      <point x="994" y="588"/>
      <point x="1094" y="778"/>
      <point x="1094" y="976" type="curve" smooth="yes"/>
      <point x="1094" y="1250"/>
      <point x="914" y="1412"/>
      <point x="578" y="1412" type="curve" smooth="yes"/>
      <point x="496" y="1412"/>
      <point x="200" y="1350"/>
      <point x="66" y="1318" type="curve"/>
      <point x="102" y="882" type="line"/>
      <point x="226" y="938"/>
      <point x="454" y="1032"/>
      <point x="478" y="1032" type="curve"/>
      <point x="572" y="1026"/>
      <point x="620" y="992"/>
      <point x="620" y="912" type="curve" smooth="yes"/>
      <point x="620" y="768"/>
      <point x="474" y="638"/>
      <point x="264" y="456" type="curve"/>
      <point x="200" y="414"/>
      <point x="138" y="374"/>
      <point x="74" y="332" type="curve"/>
    </contour>
  </outline>
</glyph>
<glyph name="five" format="2">
  <advance width="1186"/>
  <unicode hex="0035"/>
  <outline>
    <contour>
      <point x="558" y="-32" type="curve" smooth="yes"/>
      <point x="956" y="-32"/>
      <point x="1130" y="166"/>
      <point x="1130" y="448" type="curve" smooth="yes"/>
      <point x="1130" y="720"/>
      <point x="960" y="862"/>
      <point x="742" y="862" type="curve" smooth="yes"/>
      <point x="700" y="862"/>
      <point x="618" y="844"/>
      <point x="550" y="818" type="curve"/>
      <point x="518" y="818" type="line"/>
      <point x="520" y="872" type="line"/>
      <point x="532" y="962"/>
      <point x="542" y="1042"/>
      <point x="554" y="1132" type="curve"/>
      <point x="416" y="992" type="line"/>
      <point x="610" y="992" type="line"/>
      <point x="762" y="978"/>
      <point x="920" y="964"/>
      <point x="1072" y="950" type="curve"/>
      <point x="1072" y="1380" type="line"/>
      <point x="96" y="1380" type="line"/>
      <point x="106" y="1204"/>
      <point x="116" y="1008"/>
      <point x="128" y="800" type="curve"/>
      <point x="128" y="552" type="line"/>
      <point x="322" y="538" type="line"/>
      <point x="362" y="554"/>
      <point x="438" y="574"/>
      <point x="494" y="574" type="curve"/>
      <point x="602" y="568"/>
      <point x="656" y="532"/>
      <point x="656" y="460" type="curve" smooth="yes"/>
      <point x="656" y="386"/>
      <point x="616" y="354"/>
      <point x="510" y="348" type="curve"/>
      <point x="482" y="348"/>
      <point x="230" y="424"/>
      <point x="92" y="468" type="curve"/>
      <point x="58" y="46" type="line"/>
      <point x="190" y="20"/>
      <point x="480" y="-32"/>
    </contour>
  </outline>
</glyph>
<glyph name="six" format="2">
  <advance width="1256"/>
  <unicode hex="0036"/>
  <outline>
    <contour>
      <point x="662" y="-32" type="curve" smooth="yes"/>
      <point x="1044" y="-32"/>
      <point x="1200" y="210"/>
      <point x="1200" y="458" type="curve" smooth="yes"/>
      <point x="1200" y="718"/>
      <point x="1026" y="864"/>
      <point x="796" y="864" type="curve" smooth="yes"/>
      <point x="702" y="864"/>
      <point x="612" y="838"/>
      <point x="540" y="790" type="curve"/>
      <point x="500" y="790" type="line"/>
      <point x="392" y="676"/>
      <point x="388" y="648"/>
      <point x="504" y="528" type="curve"/>
      <point x="538" y="558"/>
      <point x="586" y="582"/>
      <point x="642" y="582" type="curve"/>
      <point x="704" y="572"/>
      <point x="746" y="538"/>
      <point x="746" y="468" type="curve" smooth="yes"/>
      <point x="746" y="396"/>
      <point x="702" y="356"/>
      <point x="640" y="348" type="curve"/>
      <point x="566" y="370"/>
      <point x="506" y="426"/>
      <point x="506" y="680" type="curve" smooth="yes"/>
      <point x="506" y="934"/>
      <point x="552" y="1018"/>
      <point x="728" y="1032" type="curve"/>
      <point x="750" y="1032"/>
      <point x="962" y="968"/>
      <point x="1076" y="928" type="curve"/>
      <point x="1112" y="1342" type="line"/>
      <point x="1004" y="1366"/>
      <point x="764" y="1412"/>
      <point x="696" y="1412" type="curve" smooth="yes"/>
      <point x="342" y="1412"/>
      <point x="60" y="1232"/>
      <point x="60" y="690" type="curve" smooth="yes"/>
      <point x="60" y="210"/>
      <point x="254" y="-32"/>
    </contour>
  </outline>
</glyph>
<glyph name="seven" format="2">
  <advance width="1146"/>
  <unicode hex="0037"/>
  <outline>
    <contour>
      <point x="126" y="0" type="curve"/>
      <point x="690" y="0" type="line"/>
      <point x="734" y="142"/>
      <point x="774" y="278"/>
      <point x="818" y="420" type="curve"/>
      <point x="920" y="662" type="line"/>
      <point x="980" y="790"/>
      <point x="1036" y="908"/>
      <point x="1096" y="1036" type="curve"/>
      <point x="1096" y="1380" type="line"/>
      <point x="50" y="1380" type="line"/>
      <point x="50" y="942" type="line"/>
      <point x="188" y="958"/>
      <point x="328" y="976"/>
      <point x="466" y="992" type="curve"/>
      <point x="700" y="992" type="line"/>
      <point x="580" y="1078" type="line"/>
      <point x="552" y="992"/>
      <point x="524" y="904"/>
      <point x="496" y="818" type="curve"/>
      <point x="340" y="462" type="line"/>
      <point x="270" y="310"/>
      <point x="198" y="154"/>
    </contour>
  </outline>
</glyph>
<glyph name="less" format="2">
  <advance width="1180"/>
  <unicode hex="003C"/>
  <outline>
    <contour>
      <point x="1100" y="46" type="curve"/>
      <point x="1100" y="484" type="line"/>
      <point x="1006" y="508"/>
      <point x="912" y="532"/>
      <point x="818" y="556" type="curve"/>
      <point x="670" y="602" type="line"/>
      <point x="670" y="634" type="line"/>
      <point x="818" y="680" type="line"/>
      <point x="912" y="704"/>
      <point x="1006" y="728"/>
      <point x="1100" y="752" type="curve"/>
      <point x="1100" y="1190" type="line"/>
      <point x="946" y="1128"/>
      <point x="808" y="1072"/>
      <point x="684" y="1022" type="curve"/>
      <point x="496" y="956" type="line"/>
      <point x="372" y="918"/>
      <point x="230" y="874"/>
      <point x="80" y="828" type="curve"/>
      <point x="80" y="408" type="line"/>
      <point x="230" y="362"/>
      <point x="372" y="318"/>
      <point x="496" y="280" type="curve"/>
      <point x="684" y="214" type="line"/>
      <point x="808" y="164"/>
      <point x="946" y="108"/>
    </contour>
  </outline>
</glyph>
<glyph name="equal" format="2">
  <advance width="1180"/>
  <unicode hex="003D"/>
  <outline>
    <contour>
      <point x="100" y="152" type="line"/>
      <point x="250" y="158"/>
      <point x="402" y="164"/>
      <point x="516" y="168" type="curve"/>
      <point x="664" y="168" type="line"/>
      <point x="778" y="164"/>
      <point x="930" y="158"/>
      <point x="1080" y="152" type="curve"/>
      <point x="1080" y="564" type="line"/>
      <point x="930" y="558"/>
      <point x="778" y="552"/>
      <point x="664" y="548" type="curve"/>
      <point x="516" y="548" type="line"/>
      <point x="402" y="552"/>
      <point x="250" y="558"/>
      <point x="100" y="564" type="curve"/>
    </contour>
    <contour>
      <point x="100" y="672" type="line"/>
      <point x="250" y="678"/>
      <point x="402" y="684"/>
      <point x="516" y="688" type="curve"/>
      <point x="664" y="688" type="line"/>
      <point x="778" y="684"/>
      <point x="930" y="678"/>
      <point x="1080" y="672" type="curve"/>
      <point x="1080" y="1084" type="line"/>
      <point x="930" y="1078"/>
      <point x="778" y="1072"/>
      <point x="664" y="1068" type="curve"/>
      <point x="516" y="1068" type="line"/>
      <point x="402" y="1072"/>
      <point x="250" y="1078"/>
      <point x="100" y="1084" type="curve"/>
    </contour>
  </outline>
</glyph>
<glyph name="at" format="2">
  <advance width="1804"/>
  <unicode hex="0040"/>
  <outline>
    <contour>
      <point x="960" y="-314" type="curve" smooth="yes"/>
      <point x="1092" y="-314"/>
      <point x="1340" y="-238"/>
      <point x="1528" y="-190" type="curve"/>
      <point x="1528" y="90" type="line"/>
      <point x="1282" y="-4"/>
      <point x="1030" y="-68"/>
      <point x="960" y="-74" type="curve"/>
      <point x="458" y="-64"/>
      <point x="230" y="238"/>
      <point x="328" y="676" type="curve" smooth="yes"/>
      <point x="392" y="964"/>
      <point x="582" y="1184"/>
      <point x="950" y="1194" type="curve"/>
      <point x="1332" y="1184"/>
      <point x="1548" y="968"/>
      <point x="1478" y="574" type="curve" smooth="yes"/>
      <point x="1472" y="540"/>
      <point x="1376" y="414"/>
      <point x="1318" y="386" type="curve"/>
      <point x="1252" y="394"/>
      <point x="1236" y="462"/>
      <point x="1256" y="554" type="curve"/>
      <point x="1280" y="668" type="line"/>
      <point x="1316" y="776"/>
      <point x="1352" y="882"/>
      <point x="1388" y="980" type="curve"/>
      <point x="1048" y="964" type="line"/>
      <point x="1012" y="872" type="line"/>
      <point x="986" y="872" type="line"/>
      <point x="918" y="946"/>
      <point x="840" y="990"/>
      <point x="792" y="990" type="curve" smooth="yes"/>
      <point x="608" y="990"/>
      <point x="486" y="818"/>
      <point x="448" y="628" type="curve" smooth="yes"/>
      <point x="396" y="366"/>
      <point x="512" y="134"/>
      <point x="726" y="134" type="curve" smooth="yes"/>
      <point x="766" y="134"/>
      <point x="848" y="184"/>
      <point x="944" y="250" type="curve"/>
      <point x="968" y="250" type="line"/>
      <point x="1018" y="178"/>
      <point x="1146" y="118"/>
      <point x="1326" y="118" type="curve" smooth="yes"/>
      <point x="1418" y="118"/>
      <point x="1700" y="350"/>
      <point x="1734" y="522" type="curve" smooth="yes"/>
      <point x="1834" y="1030"/>
      <point x="1496" y="1434"/>
      <point x="954" y="1434" type="curve" smooth="yes"/>
      <point x="558" y="1434"/>
      <point x="178" y="1220"/>
      <point x="74" y="734" type="curve" smooth="yes"/>
      <point x="-48" y="166"/>
      <point x="288" y="-314"/>
    </contour>
    <contour>
      <point x="836" y="436" type="curve"/>
      <point x="794" y="440"/>
      <point x="772" y="504"/>
      <point x="784" y="564" type="curve" smooth="yes"/>
      <point x="798" y="632"/>
      <point x="836" y="676"/>
      <point x="886" y="682" type="curve"/>
      <point x="910" y="676"/>
      <point x="924" y="668"/>
      <point x="934" y="656" type="curve"/>
      <point x="896" y="478" type="line"/>
      <point x="878" y="452"/>
      <point x="862" y="446"/>
    </contour>
  </outline>
</glyph>
<glyph name="B" format="2">
  <advance width="1372"/>
  <unicode hex="0042"/>
  <outline>
    <contour>
      <point x="664" y="-18" type="curve"/>
      <point x="1180" y="-18"/>
      <point x="1328" y="154"/>
      <point x="1328" y="408" type="curve" smooth="yes"/>
      <point x="1328" y="608"/>
      <point x="1228" y="706"/>
      <point x="1030" y="752" type="curve"/>
      <point x="1030" y="784" type="line"/>
      <point x="1184" y="816"/>
      <point x="1300" y="924"/>
      <point x="1300" y="1108" type="curve" smooth="yes"/>
      <point x="1300" y="1312"/>
      <point x="1170" y="1440"/>
      <point x="736" y="1440" type="curve"/>
      <point x="514" y="1440"/>
      <point x="274" y="1426"/>
      <point x="64" y="1426" type="curve"/>
      <point x="76" y="1272"/>
      <point x="86" y="1144"/>
      <point x="102" y="948" type="curve"/>
      <point x="102" y="458" type="line"/>
      <point x="88" y="274"/>
      <point x="76" y="146"/>
      <point x="64" y="0" type="curve"/>
      <point x="246" y="0"/>
      <point x="432" y="-18"/>
    </contour>
    <contour>
      <point x="594" y="334" type="line"/>
      <point x="592" y="396"/>
      <point x="588" y="462"/>
      <point x="584" y="564" type="curve"/>
      <point x="584" y="844" type="line"/>
      <point x="588" y="954"/>
      <point x="592" y="1028"/>
      <point x="594" y="1100" type="curve"/>
      <point x="698" y="1100" type="line" smooth="yes"/>
      <point x="768" y="1100"/>
      <point x="796" y="1050"/>
      <point x="796" y="978" type="curve" smooth="yes"/>
      <point x="796" y="898"/>
      <point x="752" y="864"/>
      <point x="686" y="864" type="curve" smooth="yes"/>
      <point x="466" y="864" type="line"/>
      <point x="466" y="566" type="line"/>
      <point x="714" y="566" type="line" smooth="yes"/>
      <point x="788" y="566"/>
      <point x="820" y="520"/>
      <point x="820" y="450" type="curve" smooth="yes"/>
      <point x="820" y="368"/>
      <point x="776" y="334"/>
      <point x="712" y="334" type="curve" smooth="yes"/>
    </contour>
  </outline>
</glyph>
<glyph name="I" format="2">
  <advance width="726"/>
  <unicode hex="0049"/>
  <anchor x="354" y="0" name="bottom"/>
  <anchor x="642" y="0" name="ogonek"/>
  <anchor x="354" y="1426" name="top"/>
  <anchor x="62" y="1426" name="topleft"/>
  <outline>
    <contour>
      <point x="74" y="0" type="curve"/>
      <point x="652" y="0" type="line"/>
      <point x="640" y="148"/>
      <point x="628" y="276"/>
      <point x="614" y="458" type="curve"/>
      <point x="614" y="948" type="line"/>
      <point x="630" y="1144"/>
      <point x="640" y="1272"/>
      <point x="652" y="1426" type="curve"/>
      <point x="74" y="1426" type="line"/>
      <point x="86" y="1272"/>
      <point x="96" y="1144"/>
      <point x="112" y="948" type="curve"/>
      <point x="112" y="458" type="line"/>
      <point x="98" y="274"/>
      <point x="86" y="146"/>
    </contour>
  </outline>
</glyph>
<glyph name="J" format="2">
  <advance width="714"/>
  <unicode hex="004A"/>
  <anchor x="350" y="0" name="bottom"/>
  <anchor x="350" y="1426" name="top"/>
  <outline>
    <contour>
      <point x="22" y="-304" type="curve"/>
      <point x="450" y="-304" type="line"/>
      <point x="512" y="-210"/>
      <point x="630" y="6"/>
      <point x="630" y="158" type="curve" smooth="yes"/>
      <point x="630" y="340"/>
      <point x="602" y="534"/>
      <point x="602" y="734" type="curve"/>
      <point x="602" y="948" type="line"/>
      <point x="618" y="1144"/>
      <point x="628" y="1272"/>
      <point x="640" y="1426" type="curve"/>
      <point x="72" y="1426" type="line"/>
      <point x="84" y="1272"/>
      <point x="94" y="1144"/>
      <point x="110" y="948" type="curve"/>
      <point x="110" y="734" type="line"/>
      <point x="102" y="162" type="line"/>
      <point x="74" y="-2"/>
      <point x="48" y="-154"/>
    </contour>
  </outline>
</glyph>
<glyph name="K" format="2">
  <advance width="1468"/>
  <unicode hex="004B"/>
  <anchor x="752" y="0" name="bottom"/>
  <anchor x="752" y="1426" name="top"/>
  <outline>
    <contour>
      <point x="832" y="0" type="curve"/>
      <point x="1488" y="0" type="line"/>
      <point x="1400" y="142"/>
      <point x="1260" y="370"/>
      <point x="1158" y="538" type="curve"/>
      <point x="954" y="912" type="line"/>
      <point x="964" y="696" type="line"/>
      <point x="1148" y="980" type="line"/>
      <point x="1254" y="1130"/>
      <point x="1356" y="1274"/>
      <point x="1466" y="1426" type="curve"/>
      <point x="836" y="1426" type="line"/>
      <point x="796" y="1310"/>
      <point x="768" y="1224"/>
      <point x="734" y="1126" type="curve"/>
      <point x="638" y="934" type="line"/>
      <point x="560" y="934" type="line"/>
      <point x="560" y="556" type="line"/>
      <point x="646" y="556" type="line"/>
      <point x="744" y="312" type="line"/>
      <point x="772" y="214"/>
      <point x="800" y="116"/>
    </contour>
    <contour>
      <point x="64" y="0" type="curve"/>
      <point x="630" y="0" type="line"/>
      <point x="618" y="148"/>
      <point x="606" y="276"/>
      <point x="592" y="458" type="curve"/>
      <point x="592" y="948" type="line"/>
      <point x="608" y="1144"/>
      <point x="618" y="1272"/>
      <point x="630" y="1426" type="curve"/>
      <point x="64" y="1426" type="line"/>
      <point x="76" y="1272"/>
      <point x="86" y="1144"/>
      <point x="102" y="948" type="curve"/>
      <point x="102" y="458" type="line"/>
      <point x="88" y="274"/>
      <point x="76" y="146"/>
    </contour>
  </outline>
</glyph>
<glyph name="M" format="2">
  <advance width="1942"/>
  <unicode hex="004D"/>
  <anchor x="970" y="0" name="bottom"/>
  <anchor x="970" y="1426" name="top"/>
  <outline>
    <contour>
      <point x="30" y="0" type="curve"/>
      <point x="568" y="0" type="line"/>
      <point x="566" y="142"/>
      <point x="564" y="270"/>
      <point x="562" y="382" type="curve"/>
      <point x="592" y="624" type="line"/>
      <point x="624" y="624" type="line"/>
      <point x="708" y="366" type="line"/>
      <point x="734" y="242"/>
      <point x="760" y="114"/>
      <point x="784" y="0" type="curve"/>
      <point x="1178" y="0" type="line"/>
      <point x="1196" y="114"/>
      <point x="1218" y="242"/>
      <point x="1238" y="366" type="curve"/>
      <point x="1300" y="624" type="line"/>
      <point x="1332" y="624" type="line"/>
      <point x="1362" y="382" type="line"/>
      <point x="1360" y="270"/>
      <point x="1360" y="140"/>
      <point x="1358" y="0" type="curve"/>
      <point x="1912" y="0" type="line"/>
      <point x="1882" y="146"/>
      <point x="1852" y="284"/>
      <point x="1816" y="458" type="curve"/>
      <point x="1752" y="944" type="line"/>
      <point x="1740" y="1116"/>
      <point x="1730" y="1270"/>
      <point x="1720" y="1426" type="curve"/>
      <point x="1160" y="1426" type="line"/>
      <point x="1134" y="1298"/>
      <point x="1116" y="1202"/>
      <point x="1094" y="1100" type="curve"/>
      <point x="994" y="794" type="line"/>
      <point x="964" y="794" type="line"/>
      <point x="854" y="1100" type="line"/>
      <point x="830" y="1202"/>
      <point x="808" y="1300"/>
      <point x="780" y="1426" type="curve"/>
      <point x="210" y="1426" type="line"/>
      <point x="200" y="1268"/>
      <point x="192" y="1116"/>
      <point x="182" y="944" type="curve"/>
      <point x="122" y="458" type="line"/>
      <point x="88" y="288"/>
      <point x="58" y="142"/>
    </contour>
  </outline>
</glyph>
<glyph name="N" format="2">
  <advance width="1512"/>
  <unicode hex="004E"/>
  <anchor x="758" y="0" name="bottom"/>
  <anchor x="758" y="1426" name="top"/>
  <outline>
    <contour>
      <point x="64" y="0" type="curve"/>
      <point x="598" y="0" type="line"/>
      <point x="586" y="148"/>
      <point x="574" y="276"/>
      <point x="560" y="458" type="curve"/>
      <point x="560" y="608" type="line"/>
      <point x="592" y="608" type="line"/>
      <point x="746" y="376" type="line"/>
      <point x="822" y="236"/>
      <point x="884" y="120"/>
      <point x="948" y="0" type="curve"/>
      <point x="1448" y="0" type="line"/>
      <point x="1436" y="148"/>
      <point x="1424" y="276"/>
      <point x="1410" y="458" type="curve"/>
      <point x="1410" y="948" type="line"/>
      <point x="1426" y="1144"/>
      <point x="1436" y="1272"/>
      <point x="1448" y="1426" type="curve"/>
      <point x="914" y="1426" type="line"/>
      <point x="926" y="1272"/>
      <point x="936" y="1144"/>
      <point x="952" y="948" type="curve"/>
      <point x="952" y="818" type="line"/>
      <point x="918" y="818" type="line"/>
      <point x="770" y="1048" type="line"/>
      <point x="712" y="1162"/>
      <point x="652" y="1282"/>
      <point x="580" y="1426" type="curve"/>
      <point x="64" y="1426" type="line"/>
      <point x="76" y="1272"/>
      <point x="86" y="1144"/>
      <point x="102" y="948" type="curve"/>
      <point x="102" y="458" type="line"/>
      <point x="88" y="274"/>
      <point x="76" y="146"/>
    </contour>
  </outline>
</glyph>
<glyph name="O" format="2">
  <advance width="1622"/>
  <unicode hex="004F"/>
  <anchor x="812" y="0" name="bottom"/>
  <anchor x="812" y="714" name="center"/>
  <anchor x="1058" y="0" name="ogonek"/>
  <anchor x="812" y="1426" name="top"/>
  <anchor x="48" y="1426" name="topleft"/>
  <anchor x="1392" y="1426" name="topright"/>
  <outline>
    <contour>
      <point x="818" y="-32" type="curve" smooth="yes"/>
      <point x="1322" y="-32"/>
      <point x="1574" y="284"/>
      <point x="1574" y="712" type="curve" smooth="yes"/>
      <point x="1574" y="1124"/>
      <point x="1336" y="1458"/>
      <point x="806" y="1458" type="curve" smooth="yes"/>
      <point x="282" y="1458"/>
      <point x="48" y="1126"/>
      <point x="48" y="710" type="curve" smooth="yes"/>
      <point x="48" y="322"/>
      <point x="268" y="-32"/>
    </contour>
    <contour>
      <point x="812" y="364" type="curve"/>
      <point x="644" y="380"/>
      <point x="560" y="520"/>
      <point x="560" y="712" type="curve" smooth="yes"/>
      <point x="560" y="910"/>
      <point x="650" y="1046"/>
      <point x="812" y="1062" type="curve"/>
      <point x="968" y="1046"/>
      <point x="1062" y="910"/>
      <point x="1062" y="712" type="curve" smooth="yes"/>
      <point x="1062" y="520"/>
      <point x="978" y="380"/>
    </contour>
  </outline>
</glyph>
<glyph name="P" format="2">
  <advance width="1356"/>
  <unicode hex="0050"/>
  <outline>
    <contour>
      <point x="820" y="420" type="curve"/>
      <point x="1164" y="420"/>
      <point x="1316" y="626"/>
      <point x="1316" y="932" type="curve" smooth="yes"/>
      <point x="1316" y="1320"/>
      <point x="1116" y="1440"/>
      <point x="746" y="1440" type="curve"/>
      <point x="456" y="1434"/>
      <point x="220" y="1430"/>
      <point x="64" y="1426" type="curve"/>
      <point x="554" y="1056" type="line"/>
      <point x="712" y="1056" type="line" smooth="yes"/>
      <point x="778" y="1056"/>
      <point x="818" y="1008"/>
      <point x="818" y="914" type="curve" smooth="yes"/>
      <point x="818" y="818"/>
      <point x="784" y="770"/>
      <point x="700" y="770" type="curve" smooth="yes"/>
      <point x="526" y="770" type="line"/>
      <point x="526" y="426" type="line"/>
      <point x="600" y="424"/>
      <point x="726" y="422"/>
    </contour>
    <contour>
      <point x="64" y="0" type="curve"/>
      <point x="622" y="0" type="line"/>
      <point x="610" y="148"/>
      <point x="598" y="276"/>
      <point x="584" y="458" type="curve"/>
      <point x="584" y="868" type="line"/>
      <point x="598" y="1058"/>
      <point x="610" y="1192"/>
      <point x="622" y="1346" type="curve"/>
      <point x="64" y="1426" type="line"/>
      <point x="76" y="1272"/>
      <point x="86" y="1144"/>
      <point x="102" y="948" type="curve"/>
      <point x="102" y="458" type="line"/>
      <point x="88" y="274"/>
      <point x="76" y="146"/>
    </contour>
  </outline>
</glyph>
<glyph name="R" format="2">
  <advance width="1442"/>
  <unicode hex="0052"/>
  <anchor x="722" y="0" name="bottom"/>
  <anchor x="672" y="1426" name="top"/>
  <outline>
    <contour>
      <point x="836" y="0" type="curve"/>
      <point x="1460" y="0" type="line"/>
      <point x="1388" y="114"/>
      <point x="1278" y="290"/>
      <point x="1194" y="422" type="curve"/>
      <point x="1034" y="714" type="line"/>
      <point x="832" y="564" type="line"/>
      <point x="1162" y="564"/>
      <point x="1316" y="724"/>
      <point x="1316" y="986" type="curve" smooth="yes"/>
      <point x="1316" y="1332"/>
      <point x="1094" y="1440"/>
      <point x="720" y="1440" type="curve"/>
      <point x="510" y="1436"/>
      <point x="242" y="1430"/>
      <point x="64" y="1426" type="curve"/>
      <point x="430" y="1058" type="line"/>
      <point x="706" y="1058" type="line" smooth="yes"/>
      <point x="772" y="1058"/>
      <point x="810" y="1010"/>
      <point x="810" y="928" type="curve" smooth="yes"/>
      <point x="810" y="818"/>
      <point x="756" y="796"/>
      <point x="696" y="796" type="curve" smooth="yes"/>
      <point x="494" y="796" type="line"/>
      <point x="494" y="502" type="line"/>
      <point x="830" y="502" type="line"/>
      <point x="542" y="682" type="line"/>
      <point x="738" y="282" type="line"/>
      <point x="766" y="200"/>
      <point x="798" y="108"/>
    </contour>
    <contour>
      <point x="64" y="0" type="curve"/>
      <point x="622" y="0" type="line"/>
      <point x="610" y="148"/>
      <point x="598" y="276"/>
      <point x="584" y="458" type="curve"/>
      <point x="584" y="868" type="line"/>
      <point x="598" y="1058"/>
      <point x="610" y="1192"/>
      <point x="622" y="1346" type="curve"/>
      <point x="64" y="1426" type="line"/>
      <point x="76" y="1272"/>
      <point x="86" y="1144"/>
      <point x="102" y="948" type="curve"/>
      <point x="102" y="458" type="line"/>
      <point x="88" y="274"/>
      <point x="76" y="146"/>
    </contour>
  </outline>
</glyph>
<glyph name="V" format="2">
  <advance width="1480"/>
  <unicode hex="0056"/>
  <anchor x="740" y="0" name="bottom"/>
  <anchor x="740" y="1426" name="top"/>
  <outline>
    <contour>
      <point x="376" y="0" type="curve"/>
      <point x="1094" y="0" type="line"/>
      <point x="1122" y="146"/>
      <point x="1154" y="310"/>
      <point x="1182" y="452" type="curve"/>
      <point x="1302" y="900" type="line"/>
      <point x="1356" y="1050"/>
      <point x="1430" y="1254"/>
      <point x="1492" y="1426" type="curve"/>
      <point x="872" y="1426" type="line"/>
      <point x="858" y="1272"/>
      <point x="842" y="1086"/>
      <point x="828" y="936" type="curve"/>
      <point x="752" y="494" type="line"/>
      <point x="720" y="494" type="line"/>
      <point x="656" y="934" type="line"/>
      <point x="644" y="1086"/>
      <point x="628" y="1270"/>
      <point x="614" y="1426" type="curve"/>
      <point x="-14" y="1426" type="line"/>
      <point x="50" y="1246"/>
      <point x="120" y="1050"/>
      <point x="174" y="900" type="curve"/>
      <point x="290" y="452" type="line"/>
      <point x="316" y="314"/>
      <point x="350" y="142"/>
    </contour>
  </outline>
</glyph>
<glyph name="W" format="2">
  <advance width="2152"/>
  <unicode hex="0057"/>
  <anchor x="1064" y="0" name="bottom"/>
  <anchor x="1064" y="1426" name="top"/>
  <outline>
    <contour>
      <point x="342" y="0" type="curve"/>
      <point x="956" y="0" type="line"/>
      <point x="964" y="120"/>
      <point x="974" y="260"/>
      <point x="982" y="376" type="curve"/>
      <point x="1034" y="716" type="line"/>
      <point x="1066" y="716" type="line"/>
      <point x="1122" y="378" type="line"/>
      <point x="1130" y="262"/>
      <point x="1142" y="120"/>
      <point x="1150" y="0" type="curve"/>
      <point x="1800" y="0" type="line"/>
      <point x="1824" y="138"/>
      <point x="1854" y="308"/>
      <point x="1880" y="450" type="curve"/>
      <point x="1992" y="900" type="line"/>
      <point x="2042" y="1050"/>
      <point x="2112" y="1254"/>
      <point x="2172" y="1426" type="curve"/>
      <point x="1540" y="1426" type="line"/>
      <point x="1532" y="1286"/>
      <point x="1524" y="1118"/>
      <point x="1518" y="984" type="curve"/>
      <point x="1476" y="584" type="line"/>
      <point x="1444" y="584" type="line"/>
      <point x="1388" y="982" type="line"/>
      <point x="1380" y="1118"/>
      <point x="1368" y="1286"/>
      <point x="1360" y="1426" type="curve"/>
      <point x="790" y="1426" type="line"/>
      <point x="780" y="1284"/>
      <point x="770" y="1118"/>
      <point x="762" y="984" type="curve"/>
      <point x="710" y="584" type="line"/>
      <point x="678" y="584" type="line"/>
      <point x="636" y="982" type="line"/>
      <point x="630" y="1118"/>
      <point x="620" y="1288"/>
      <point x="614" y="1426" type="curve"/>
      <point x="-20" y="1426" type="line"/>
      <point x="40" y="1250"/>
      <point x="106" y="1052"/>
      <point x="156" y="900" type="curve"/>
      <point x="264" y="450" type="line"/>
      <point x="288" y="314"/>
      <point x="318" y="144"/>
    </contour>
  </outline>
</glyph>
<glyph name="Z" format="2">
  <advance width="1408"/>
  <unicode hex="005A"/>
  <anchor x="704" y="0" name="bottom"/>
  <anchor x="704" y="714" name="center"/>
  <anchor x="704" y="1426" name="top"/>
  <outline>
    <contour>
      <point x="60" y="0" type="line"/>
      <point x="1348" y="0" type="line"/>
      <point x="1348" y="454" type="line"/>
      <point x="1226" y="440"/>
      <point x="1038" y="418"/>
      <point x="904" y="402" type="curve"/>
      <point x="628" y="402" type="line"/>
      <point x="652" y="262" type="line"/>
      <point x="1070" y="776" type="line"/>
      <point x="1166" y="880"/>
      <point x="1254" y="976"/>
      <point x="1334" y="1064" type="curve"/>
      <point x="1334" y="1426" type="line"/>
      <point x="86" y="1426" type="line"/>
      <point x="86" y="964" type="line"/>
      <point x="242" y="986"/>
      <point x="382" y="1006"/>
      <point x="508" y="1024" type="curve"/>
      <point x="814" y="1024" type="line"/>
      <point x="780" y="1164" type="line"/>
      <point x="366" y="638" type="line"/>
      <point x="262" y="524"/>
      <point x="130" y="380"/>
      <point x="60" y="304" type="curve"/>
    </contour>
  </outline>
</glyph>
<glyph name="bracketleft" format="2">
  <advance width="890"/>
  <unicode hex="005B"/>
  <outline>
    <contour>
      <point x="78" y="-260" type="curve"/>
      <point x="548" y="-260" type="line"/>
      <point x="548" y="-180" type="line"/>
      <point x="536" y="-32"/>
      <point x="524" y="96"/>
      <point x="510" y="278" type="curve"/>
      <point x="510" y="1008" type="line"/>
      <point x="524" y="1198"/>
      <point x="536" y="1332"/>
      <point x="548" y="1486" type="curve"/>
      <point x="548" y="1566" type="line"/>
      <point x="78" y="1566" type="line"/>
      <point x="88" y="1408"/>
      <point x="96" y="1284"/>
      <point x="110" y="1088" type="curve"/>
      <point x="110" y="198" type="line"/>
      <point x="98" y="16"/>
      <point x="88" y="-116"/>
    </contour>
    <contour>
      <point x="458" y="-260" type="line"/>
      <point x="830" y="-260" type="line"/>
      <point x="830" y="112" type="line"/>
      <point x="742" y="104"/>
      <point x="654" y="96"/>
      <point x="544" y="86" type="curve"/>
      <point x="458" y="86" type="line"/>
    </contour>
    <contour>
      <point x="426" y="1220" type="line"/>
      <point x="520" y="1220" type="line"/>
      <point x="648" y="1210"/>
      <point x="736" y="1202"/>
      <point x="820" y="1194" type="curve"/>
      <point x="820" y="1566" type="line"/>
      <point x="426" y="1566" type="line"/>
    </contour>
  </outline>
</glyph>
<glyph name="asciicircum" format="2">
  <advance width="1316"/>
  <unicode hex="005E"/>
  <outline>
    <contour>
      <point x="870" y="678" type="curve"/>
      <point x="1246" y="682" type="line"/>
      <point x="1148" y="914"/>
      <point x="1052" y="1148"/>
      <point x="954" y="1380" type="curve"/>
      <point x="362" y="1380" type="line"/>
      <point x="264" y="1148"/>
      <point x="168" y="918"/>
      <point x="70" y="686" type="curve"/>
      <point x="448" y="686" type="line"/>
      <point x="512" y="792"/>
      <point x="578" y="900"/>
      <point x="642" y="1006" type="curve"/>
      <point x="674" y="1006" type="line"/>
      <point x="740" y="896"/>
      <point x="804" y="788"/>
    </contour>
  </outline>
</glyph>
<glyph name="c" format="2">
  <advance width="948"/>
  <unicode hex="0063"/>
  <anchor x="548" y="0" name="bottom"/>
  <anchor x="548" y="1004" name="top"/>
  <outline>
    <contour>
      <point x="586" y="-24" type="curve" smooth="yes"/>
      <point x="638" y="-24"/>
      <point x="820" y="-4"/>
      <point x="902" y="14" type="curve"/>
      <point x="886" y="380" type="line"/>
      <point x="826" y="360"/>
      <point x="728" y="332"/>
      <point x="706" y="332" type="curve"/>
      <point x="576" y="334"/>
      <point x="488" y="396"/>
      <point x="488" y="512" type="curve" smooth="yes"/>
      <point x="488" y="606"/>
      <point x="544" y="660"/>
      <point x="616" y="666" type="curve"/>
      <point x="638" y="666"/>
      <point x="766" y="632"/>
      <point x="878" y="592" type="curve"/>
      <point x="908" y="966" type="line"/>
      <point x="786" y="1002"/>
      <point x="616" y="1034"/>
      <point x="562" y="1034" type="curve" smooth="yes"/>
      <point x="208" y="1034"/>
      <point x="36" y="808"/>
      <point x="36" y="498" type="curve" smooth="yes"/>
      <point x="36" y="190"/>
      <point x="240" y="-24"/>
    </contour>
  </outline>
</glyph>
<glyph name="d" format="2">
  <advance width="1188"/>
  <unicode hex="0064"/>
  <anchor x="644" y="0" name="bottom"/>
  <anchor x="592" y="502" name="center"/>
  <anchor x="644" y="1466" name="top"/>
  <anchor x="1154" y="1004" name="topright"/>
  <outline>
    <contour>
      <point x="416" y="-32" type="curve" smooth="yes"/>
      <point x="486" y="-32"/>
      <point x="566" y="2"/>
      <point x="688" y="104" type="curve"/>
      <point x="714" y="104" type="line"/>
      <point x="744" y="0" type="line"/>
      <point x="1152" y="0" type="line"/>
      <point x="1140" y="140"/>
      <point x="1130" y="258"/>
      <point x="1116" y="426" type="curve"/>
      <point x="1116" y="986" type="line"/>
      <point x="1134" y="1178"/>
      <point x="1150" y="1350"/>
      <point x="1164" y="1504" type="curve"/>
      <point x="602" y="1464" type="line"/>
      <point x="628" y="1298"/>
      <point x="652" y="1144"/>
      <point x="672" y="986" type="curve"/>
      <point x="672" y="916" type="line"/>
      <point x="640" y="916" type="line"/>
      <point x="560" y="988"/>
      <point x="466" y="1036"/>
      <point x="418" y="1036" type="curve" smooth="yes"/>
      <point x="162" y="1036"/>
      <point x="40" y="800"/>
      <point x="40" y="502" type="curve" smooth="yes"/>
      <point x="40" y="224"/>
      <point x="154" y="-32"/>
    </contour>
    <contour>
      <point x="598" y="338" type="curve"/>
      <point x="536" y="344"/>
      <point x="494" y="418"/>
      <point x="494" y="498" type="curve" smooth="yes"/>
      <point x="494" y="584"/>
      <point x="538" y="654"/>
      <point x="598" y="660" type="curve"/>
      <point x="624" y="654"/>
      <point x="654" y="640"/>
      <point x="672" y="624" type="curve"/>
      <point x="672" y="394" type="line"/>
      <point x="654" y="364"/>
      <point x="622" y="344"/>
    </contour>
  </outline>
</glyph>
<glyph name="g" format="2">
  <advance width="1124"/>
  <unicode hex="0067"/>
  <anchor x="564" y="-384" name="bottom"/>
  <anchor x="564" y="1004" name="top"/>
  <outline>
    <contour>
      <point x="468" y="-412" type="curve" smooth="yes"/>
      <point x="758" y="-412"/>
      <point x="1092" y="-316"/>
      <point x="1092" y="4" type="curve" smooth="yes"/>
      <point x="1092" y="240"/>
      <point x="908" y="292"/>
      <point x="678" y="292" type="curve" smooth="yes"/>
      <point x="642" y="292" type="line" smooth="yes"/>
      <point x="564" y="292"/>
      <point x="528" y="298"/>
      <point x="528" y="328" type="curve" smooth="yes"/>
      <point x="528" y="364"/>
      <point x="564" y="374"/>
      <point x="646" y="390" type="curve" smooth="yes"/>
      <point x="808" y="422"/>
      <point x="968" y="504"/>
      <point x="968" y="680" type="curve" smooth="yes"/>
      <point x="968" y="776"/>
      <point x="938" y="852"/>
      <point x="886" y="908" type="curve"/>
      <point x="774" y="748" type="line"/>
      <point x="880" y="724"/>
      <point x="976" y="700"/>
      <point x="1092" y="670" type="curve"/>
      <point x="1092" y="1012" type="line"/>
      <point x="854" y="1012" type="line" smooth="yes"/>
      <point x="692" y="1012"/>
      <point x="636" y="1036"/>
      <point x="506" y="1036" type="curve" smooth="yes"/>
      <point x="160" y="1036"/>
      <point x="36" y="888"/>
      <point x="36" y="656" type="curve" smooth="yes"/>
      <point x="36" y="574"/>
      <point x="122" y="482"/>
      <point x="260" y="386" type="curve"/>
      <point x="260" y="360" type="line"/>
      <point x="166" y="328"/>
      <point x="126" y="256"/>
      <point x="126" y="190" type="curve" smooth="yes"/>
      <point x="126" y="106"/>
      <point x="192" y="48"/>
      <point x="258" y="36" type="curve"/>
      <point x="258" y="10" type="line"/>
      <point x="124" y="-62"/>
      <point x="62" y="-128"/>
      <point x="62" y="-186" type="curve" smooth="yes"/>
      <point x="62" y="-310"/>
      <point x="160" y="-412"/>
    </contour>
    <contour>
      <point x="554" y="-148" type="curve"/>
      <point x="466" y="-142"/>
      <point x="412" y="-108"/>
      <point x="412" y="-84" type="curve" smooth="yes"/>
      <point x="412" y="-64"/>
      <point x="482" y="-38"/>
      <point x="518" y="-28" type="curve"/>
      <point x="532" y="-28" type="line" smooth="yes"/>
      <point x="630" y="-28"/>
      <point x="680" y="-52"/>
      <point x="680" y="-80" type="curve" smooth="yes"/>
      <point x="680" y="-110"/>
      <point x="612" y="-138"/>
    </contour>
    <contour>
      <point x="498" y="556" type="curve"/>
      <point x="462" y="582"/>
      <point x="438" y="612"/>
      <point x="438" y="628" type="curve" smooth="yes"/>
      <point x="438" y="660"/>
      <point x="464" y="686"/>
      <point x="502" y="692" type="curve"/>
      <point x="564" y="688"/>
      <point x="608" y="664"/>
      <point x="608" y="630" type="curve" smooth="yes"/>
      <point x="608" y="590"/>
      <point x="538" y="562"/>
    </contour>
  </outline>
</glyph>
<glyph name="h" format="2">
  <advance width="1196"/>
  <unicode hex="0068"/>
  <guideline x="152" y="743" angle="4.4708"/>
  <anchor x="604" y="0" name="bottom"/>
  <anchor x="604" y="818" name="center"/>
  <anchor x="546" y="1466" name="top"/>
  <outline>
    <contour>
      <point x="44" y="0" type="curve"/>
      <point x="560" y="0" type="line"/>
      <point x="548" y="138"/>
      <point x="536" y="258"/>
      <point x="524" y="400" type="curve"/>
      <point x="524" y="582" type="line"/>
      <point x="548" y="606"/>
      <point x="600" y="636"/>
      <point x="610" y="636" type="curve" smooth="yes"/>
      <point x="658" y="636"/>
      <point x="674" y="586"/>
      <point x="674" y="476" type="curve"/>
      <point x="674" y="400" type="line"/>
      <point x="664" y="258"/>
      <point x="654" y="138"/>
      <point x="644" y="0" type="curve"/>
      <point x="1156" y="0" type="line"/>
      <point x="1144" y="138"/>
      <point x="1132" y="258"/>
      <point x="1118" y="426" type="curve"/>
      <point x="1118" y="504"/>
      <point x="1128" y="594"/>
      <point x="1128" y="682" type="curve" smooth="yes"/>
      <point x="1128" y="922"/>
      <point x="1006" y="1036"/>
      <point x="814" y="1036" type="curve" smooth="yes"/>
      <point x="754" y="1036"/>
      <point x="654" y="978"/>
      <point x="558" y="894" type="curve"/>
      <point x="524" y="894" type="line"/>
      <point x="524" y="986" type="line"/>
      <point x="542" y="1178"/>
      <point x="558" y="1350"/>
      <point x="572" y="1504" type="curve"/>
      <point x="10" y="1464" type="line"/>
      <point x="36" y="1298"/>
      <point x="60" y="1144"/>
      <point x="80" y="986" type="curve"/>
      <point x="80" y="426" type="line"/>
      <point x="66" y="258"/>
      <point x="56" y="140"/>
    </contour>
  </outline>
</glyph>
<glyph name="k" format="2">
  <advance width="1234"/>
  <unicode hex="006B"/>
  <anchor x="608" y="0" name="bottom"/>
  <anchor x="608" y="1466" name="top"/>
  <outline>
    <contour>
      <point x="666" y="0" type="curve"/>
      <point x="1258" y="0" type="line"/>
      <point x="1176" y="126"/>
      <point x="1092" y="254"/>
      <point x="1010" y="380" type="curve"/>
      <point x="858" y="642" type="line"/>
      <point x="880" y="452" type="line"/>
      <point x="990" y="634" type="line"/>
      <point x="1072" y="758"/>
      <point x="1154" y="880"/>
      <point x="1238" y="1004" type="curve"/>
      <point x="680" y="1004" type="line"/>
      <point x="660" y="924"/>
      <point x="642" y="846"/>
      <point x="622" y="766" type="curve"/>
      <point x="572" y="636" type="line"/>
      <point x="492" y="636" type="line"/>
      <point x="492" y="352" type="line"/>
      <point x="572" y="352" type="line"/>
      <point x="620" y="216" type="line"/>
      <point x="636" y="144"/>
      <point x="652" y="72"/>
    </contour>
    <contour>
      <point x="44" y="0" type="curve"/>
      <point x="560" y="0" type="line"/>
      <point x="548" y="114"/>
      <point x="536" y="214"/>
      <point x="524" y="332" type="curve"/>
      <point x="524" y="986" type="line"/>
      <point x="542" y="1178"/>
      <point x="558" y="1350"/>
      <point x="572" y="1504" type="curve"/>
      <point x="10" y="1464" type="line"/>
      <point x="36" y="1298"/>
      <point x="60" y="1144"/>
      <point x="80" y="986" type="curve"/>
      <point x="80" y="426" type="line"/>
      <point x="66" y="258"/>
      <point x="56" y="140"/>
    </contour>
  </outline>
</glyph>
<glyph name="p" format="2">
  <advance width="1204"/>
  <unicode hex="0070"/>
  <outline>
    <contour>
      <point x="52" y="-396" type="curve"/>
      <point x="578" y="-384" type="line"/>
      <point x="562" y="-246"/>
      <point x="550" y="-126"/>
      <point x="532" y="16" type="curve"/>
      <point x="532" y="78" type="line"/>
      <point x="554" y="78" type="line"/>
      <point x="660" y="-4"/>
      <point x="730" y="-32"/>
      <point x="788" y="-32" type="curve" smooth="yes"/>
      <point x="1050" y="-32"/>
      <point x="1164" y="224"/>
      <point x="1164" y="502" type="curve" smooth="yes"/>
      <point x="1164" y="800"/>
      <point x="1042" y="1036"/>
      <point x="786" y="1036" type="curve" smooth="yes"/>
      <point x="730" y="1036"/>
      <point x="618" y="976"/>
      <point x="524" y="888" type="curve"/>
      <point x="492" y="888" type="line"/>
      <point x="472" y="1024" type="line"/>
      <point x="30" y="1004" type="line"/>
      <point x="52" y="838"/>
      <point x="70" y="684"/>
      <point x="88" y="526" type="curve"/>
      <point x="88" y="42" type="line"/>
      <point x="74" y="-126"/>
      <point x="64" y="-258"/>
    </contour>
    <contour>
      <point x="606" y="338" type="curve"/>
      <point x="582" y="344"/>
      <point x="550" y="364"/>
      <point x="532" y="394" type="curve"/>
      <point x="532" y="624" type="line"/>
      <point x="550" y="640"/>
      <point x="580" y="654"/>
      <point x="606" y="660" type="curve"/>
      <point x="666" y="654"/>
      <point x="710" y="584"/>
      <point x="710" y="498" type="curve" smooth="yes"/>
      <point x="710" y="418"/>
      <point x="668" y="344"/>
    </contour>
  </outline>
</glyph>
<glyph name="r" format="2">
  <advance width="876"/>
  <unicode hex="0072"/>
  <anchor x="292" y="0" name="bottom"/>
  <anchor x="474" y="1004" name="top"/>
  <outline>
    <contour>
      <point x="52" y="0" type="curve"/>
      <point x="568" y="0" type="line"/>
      <point x="556" y="138"/>
      <point x="544" y="258"/>
      <point x="532" y="400" type="curve"/>
      <point x="532" y="534" type="line"/>
      <point x="572" y="564"/>
      <point x="648" y="590"/>
      <point x="666" y="590" type="curve" smooth="yes"/>
      <point x="678" y="590"/>
      <point x="736" y="576"/>
      <point x="818" y="556" type="curve"/>
      <point x="856" y="1016" type="line"/>
      <point x="822" y="1028"/>
      <point x="778" y="1036"/>
      <point x="756" y="1036" type="curve" smooth="yes"/>
      <point x="706" y="1036"/>
      <point x="630" y="998"/>
      <point x="510" y="882" type="curve"/>
      <point x="476" y="882" type="line"/>
      <point x="456" y="1024" type="line"/>
      <point x="30" y="1004" type="line"/>
      <point x="52" y="838"/>
      <point x="70" y="684"/>
      <point x="88" y="526" type="curve"/>
      <point x="88" y="426" type="line"/>
      <point x="74" y="258"/>
      <point x="64" y="140"/>
    </contour>
  </outline>
</glyph>
<glyph name="y" format="2">
  <advance width="1166"/>
  <unicode hex="0079"/>
  <anchor x="988" y="0" name="bottom"/>
  <anchor x="588" y="1004" name="top"/>
  <outline>
    <contour>
      <point x="144" y="-396" type="curve"/>
      <point x="668" y="-384" type="line"/>
      <point x="716" y="-240"/>
      <point x="772" y="-72"/>
      <point x="858" y="184" type="curve"/>
      <point x="964" y="466" type="line"/>
      <point x="1064" y="718"/>
      <point x="1112" y="842"/>
      <point x="1176" y="1004" type="curve"/>
      <point x="668" y="1004" type="line"/>
      <point x="658" y="892"/>
      <point x="648" y="786"/>
      <point x="636" y="674" type="curve"/>
      <point x="602" y="460" type="line"/>
      <point x="570" y="460" type="line"/>
      <point x="540" y="676" type="line"/>
      <point x="530" y="792"/>
      <point x="520" y="900"/>
      <point x="510" y="1016" type="curve"/>
      <point x="-10" y="1004" type="line"/>
      <point x="44" y="862"/>
      <point x="104" y="710"/>
      <point x="160" y="564" type="curve"/>
      <point x="220" y="384" type="line"/>
      <point x="258" y="252"/>
      <point x="300" y="110"/>
      <point x="340" y="-30" type="curve"/>
      <point x="360" y="42" type="line"/>
      <point x="290" y="-100"/>
      <point x="214" y="-254"/>
    </contour>
  </outline>
</glyph>
<glyph name="bar" format="2">
  <advance width="604"/>
  <unicode hex="007C"/>
  <outline>
    <contour>
      <point x="88" y="-328" type="curve"/>
      <point x="516" y="-328" type="line"/>
      <point x="506" y="-52"/>
      <point x="494" y="254"/>
      <point x="492" y="330" type="curve"/>
      <point x="492" y="894" type="line"/>
      <point x="494" y="970"/>
      <point x="506" y="1276"/>
      <point x="516" y="1552" type="curve"/>
      <point x="88" y="1552" type="line"/>
      <point x="98" y="1276"/>
      <point x="110" y="970"/>
      <point x="112" y="894" type="curve"/>
      <point x="112" y="330" type="line"/>
      <point x="110" y="254"/>
      <point x="98" y="-52"/>
    </contour>
  </outline>
</glyph>
<glyph name="sterling" format="2">
  <advance width="1246"/>
  <unicode hex="00A3"/>
  <outline>
    <contour>
      <point x="70" y="0" type="line"/>
      <point x="1186" y="0" type="line"/>
      <point x="1186" y="442" type="line"/>
      <point x="1042" y="430"/>
      <point x="838" y="414"/>
      <point x="666" y="400" type="curve"/>
      <point x="412" y="400" type="line"/>
      <point x="502" y="340" type="line"/>
      <point x="646" y="538"/>
      <point x="678" y="598"/>
      <point x="678" y="660" type="curve" smooth="yes"/>
      <point x="678" y="838" type="line" smooth="yes"/>
      <point x="678" y="964"/>
      <point x="742" y="1018"/>
      <point x="846" y="1026" type="curve"/>
      <point x="890" y="1026"/>
      <point x="980" y="1004"/>
      <point x="1104" y="950" type="curve"/>
      <point x="1146" y="1346" type="line"/>
      <point x="1062" y="1376"/>
      <point x="938" y="1412"/>
      <point x="806" y="1412" type="curve" smooth="yes"/>
      <point x="386" y="1412"/>
      <point x="200" y="1208"/>
      <point x="200" y="852" type="curve" smooth="yes"/>
      <point x="200" y="736"/>
      <point x="208" y="622"/>
      <point x="208" y="508" type="curve"/>
      <point x="208" y="466"/>
      <point x="184" y="410"/>
      <point x="70" y="240" type="curve"/>
    </contour>
    <contour>
      <point x="86" y="548" type="line"/>
      <point x="236" y="554"/>
      <point x="388" y="560"/>
      <point x="502" y="564" type="curve"/>
      <point x="590" y="564" type="line"/>
      <point x="704" y="560"/>
      <point x="856" y="554"/>
      <point x="1006" y="548" type="curve"/>
      <point x="1006" y="880" type="line"/>
      <point x="856" y="874"/>
      <point x="704" y="868"/>
      <point x="590" y="864" type="curve"/>
      <point x="502" y="864" type="line"/>
      <point x="388" y="868"/>
      <point x="236" y="874"/>
      <point x="86" y="880" type="curve"/>
    </contour>
  </outline>
</glyph>
<glyph name="yen" format="2">
  <advance width="1366"/>
  <unicode hex="00A5"/>
  <outline>
    <contour>
      <point x="462" y="440" type="line"/>
      <point x="912" y="440" type="line"/>
      <point x="1170" y="1012" type="line"/>
      <point x="1238" y="1134"/>
      <point x="1308" y="1258"/>
      <point x="1376" y="1380" type="curve"/>
      <point x="794" y="1380" type="line"/>
      <point x="774" y="1248"/>
      <point x="766" y="1196"/>
      <point x="750" y="1090" type="curve"/>
      <point x="706" y="920" type="line"/>
      <point x="670" y="920" type="line"/>
      <point x="630" y="1088" type="line"/>
      <point x="618" y="1182"/>
      <point x="610" y="1244"/>
      <point x="592" y="1380" type="curve"/>
      <point x="-14" y="1380" type="line"/>
      <point x="94" y="1194"/>
      <point x="138" y="1118"/>
      <point x="200" y="1010" type="curve"/>
    </contour>
    <contour>
      <point x="418" y="0" type="curve"/>
      <point x="958" y="0" type="line"/>
      <point x="946" y="144"/>
      <point x="936" y="266"/>
      <point x="922" y="440" type="curve"/>
      <point x="922" y="822" type="line"/>
      <point x="454" y="822" type="line"/>
      <point x="454" y="440" type="line"/>
      <point x="440" y="266"/>
      <point x="430" y="144"/>
    </contour>
    <contour>
      <point x="126" y="178" type="line"/>
      <point x="276" y="184"/>
      <point x="428" y="190"/>
      <point x="542" y="194" type="curve"/>
      <point x="830" y="194" type="line"/>
      <point x="944" y="190"/>
      <point x="1096" y="184"/>
      <point x="1246" y="178" type="curve"/>
      <point x="1246" y="460" type="line"/>
      <point x="1096" y="458"/>
      <point x="944" y="456"/>
      <point x="830" y="454" type="curve"/>
      <point x="542" y="454" type="line"/>
      <point x="428" y="456"/>
      <point x="276" y="458"/>
      <point x="126" y="460" type="curve"/>
    </contour>
    <contour>
      <point x="126" y="546" type="line"/>
      <point x="276" y="548"/>
      <point x="428" y="550"/>
      <point x="542" y="552" type="curve"/>
      <point x="830" y="552" type="line"/>
      <point x="944" y="550"/>
      <point x="1096" y="548"/>
      <point x="1246" y="546" type="curve"/>
      <point x="1246" y="828" type="line"/>
      <point x="1096" y="822"/>
      <point x="944" y="816"/>
      <point x="830" y="812" type="curve"/>
      <point x="542" y="812" type="line"/>
      <point x="428" y="816"/>
      <point x="276" y="822"/>
      <point x="126" y="828" type="curve"/>
    </contour>
  </outline>
</glyph>
<glyph name="section" format="2">
  <advance width="1234"/>
  <unicode hex="00A7"/>
  <outline>
    <contour>
      <point x="500" y="-272" type="curve" smooth="yes"/>
      <point x="876" y="-272"/>
      <point x="1036" y="-132"/>
      <point x="1036" y="98" type="curve" smooth="yes"/>
      <point x="1036" y="300"/>
      <point x="936" y="398"/>
      <point x="662" y="470" type="curve" smooth="yes"/>
      <point x="532" y="504"/>
      <point x="496" y="534"/>
      <point x="496" y="594" type="curve" smooth="yes"/>
      <point x="496" y="658"/>
      <point x="550" y="696"/>
      <point x="596" y="700" type="curve"/>
      <point x="420" y="954" type="line"/>
      <point x="176" y="908"/>
      <point x="40" y="770"/>
      <point x="40" y="596" type="curve" smooth="yes"/>
      <point x="40" y="414"/>
      <point x="138" y="308"/>
      <point x="366" y="250" type="curve" smooth="yes"/>
      <point x="538" y="206"/>
      <point x="586" y="186"/>
      <point x="586" y="126" type="curve" smooth="yes"/>
      <point x="586" y="74"/>
      <point x="532" y="52"/>
      <point x="468" y="48" type="curve"/>
      <point x="424" y="48"/>
      <point x="242" y="102"/>
      <point x="66" y="164" type="curve"/>
      <point x="42" y="-200" type="line"/>
      <point x="206" y="-236"/>
      <point x="416" y="-272"/>
    </contour>
    <contour>
      <point x="830" y="240" type="line"/>
      <point x="1084" y="304"/>
      <point x="1196" y="446"/>
      <point x="1196" y="598" type="curve" smooth="yes"/>
      <point x="1196" y="780"/>
      <point x="1096" y="858"/>
      <point x="822" y="930" type="curve" smooth="yes"/>
      <point x="692" y="964"/>
      <point x="656" y="994"/>
      <point x="656" y="1044" type="curve" smooth="yes"/>
      <point x="656" y="1098"/>
      <point x="710" y="1116"/>
      <point x="754" y="1120" type="curve"/>
      <point x="784" y="1120"/>
      <point x="944" y="1074"/>
      <point x="1100" y="1016" type="curve"/>
      <point x="1126" y="1394" type="line"/>
      <point x="988" y="1418"/>
      <point x="770" y="1458"/>
      <point x="662" y="1458" type="curve" smooth="yes"/>
      <point x="366" y="1458"/>
      <point x="200" y="1312"/>
      <point x="200" y="1076" type="curve" smooth="yes"/>
      <point x="200" y="894"/>
      <point x="298" y="768"/>
      <point x="526" y="710" type="curve" smooth="yes"/>
      <point x="698" y="666"/>
      <point x="746" y="626"/>
      <point x="746" y="566" type="curve" smooth="yes"/>
      <point x="746" y="496"/>
      <point x="694" y="472"/>
      <point x="624" y="466" type="curve"/>
    </contour>
  </outline>
</glyph>
<glyph name="plusminus" format="2">
  <advance width="1180"/>
  <unicode hex="00B1"/>
  <outline>
    <contour>
      <point x="80" y="-16" type="line"/>
      <point x="230" y="-10"/>
      <point x="382" y="-4"/>
      <point x="496" y="0" type="curve"/>
      <point x="684" y="0" type="line"/>
      <point x="798" y="-4"/>
      <point x="950" y="-10"/>
      <point x="1100" y="-16" type="curve"/>
      <point x="1100" y="396" type="line"/>
      <point x="950" y="390"/>
      <point x="798" y="384"/>
      <point x="684" y="380" type="curve"/>
      <point x="496" y="380" type="line"/>
      <point x="382" y="384"/>
      <point x="230" y="390"/>
      <point x="80" y="396" type="curve"/>
    </contour>
    <contour>
      <point x="80" y="732" type="line"/>
      <point x="230" y="738"/>
      <point x="382" y="744"/>
      <point x="496" y="748" type="curve"/>
      <point x="684" y="748" type="line"/>
      <point x="798" y="744"/>
      <point x="950" y="738"/>
      <point x="1100" y="732" type="curve"/>
      <point x="1100" y="1144" type="line"/>
      <point x="950" y="1138"/>
      <point x="798" y="1132"/>
      <point x="684" y="1128" type="curve"/>
      <point x="496" y="1128" type="line"/>
      <point x="382" y="1132"/>
      <point x="230" y="1138"/>
      <point x="80" y="1144" type="curve"/>
    </contour>
    <contour>
      <point x="378" y="448" type="curve"/>
      <point x="802" y="448" type="line"/>
      <point x="796" y="598"/>
      <point x="790" y="750"/>
      <point x="786" y="864" type="curve"/>
      <point x="786" y="1012" type="line"/>
      <point x="790" y="1126"/>
      <point x="796" y="1278"/>
      <point x="802" y="1428" type="curve"/>
      <point x="378" y="1428" type="line"/>
      <point x="384" y="1278"/>
      <point x="390" y="1126"/>
      <point x="394" y="1012" type="curve"/>
      <point x="394" y="864" type="line"/>
      <point x="390" y="750"/>
      <point x="384" y="598"/>
    </contour>
  </outline>
</glyph>
<glyph name="ordmasculine" format="2">
  <advance width="928"/>
  <unicode hex="00BA"/>
  <outline>
    <contour>
      <point x="468" y="648" type="curve" smooth="yes"/>
      <point x="742" y="648"/>
      <point x="888" y="820"/>
      <point x="888" y="1054" type="curve" smooth="yes"/>
      <point x="888" y="1280"/>
      <point x="754" y="1458"/>
      <point x="460" y="1458" type="curve" smooth="yes"/>
      <point x="174" y="1458"/>
      <point x="40" y="1280"/>
      <point x="40" y="1054" type="curve" smooth="yes"/>
      <point x="40" y="840"/>
      <point x="166" y="648"/>
    </contour>
    <contour>
      <point x="466" y="906" type="curve"/>
      <point x="408" y="914"/>
      <point x="368" y="970"/>
      <point x="368" y="1054" type="curve" smooth="yes"/>
      <point x="368" y="1132"/>
      <point x="404" y="1192"/>
      <point x="466" y="1200" type="curve"/>
      <point x="528" y="1188"/>
      <point x="558" y="1134"/>
      <point x="558" y="1054" type="curve" smooth="yes"/>
      <point x="558" y="970"/>
      <point x="522" y="914"/>
    </contour>
  </outline>
</glyph>
<glyph name="Oslash" format="2">
  <advance width="1622"/>
  <unicode hex="00D8"/>
  <anchor x="812" y="0" name="bottom"/>
  <anchor x="812" y="714" name="center"/>
  <anchor x="1062" y="0" name="ogonek"/>
  <anchor x="812" y="1426" name="top"/>
  <anchor x="48" y="1426" name="topleft"/>
  <anchor x="1392" y="1426" name="topright"/>
  <outline>
    <contour>
      <point x="818" y="-32" type="curve" smooth="yes"/>
      <point x="1322" y="-32"/>
      <point x="1574" y="284"/>
      <point x="1574" y="712" type="curve" smooth="yes"/>
      <point x="1574" y="1124"/>
      <point x="1336" y="1458"/>
      <point x="806" y="1458" type="curve" smooth="yes"/>
      <point x="282" y="1458"/>
      <point x="48" y="1126"/>
      <point x="48" y="710" type="curve" smooth="yes"/>
      <point x="48" y="322"/>
      <point x="268" y="-32"/>
    </contour>
    <contour>
      <point x="812" y="364" type="curve"/>
      <point x="644" y="380"/>
      <point x="560" y="520"/>
      <point x="560" y="712" type="curve" smooth="yes"/>
      <point x="560" y="910"/>
      <point x="650" y="1046"/>
      <point x="812" y="1062" type="curve"/>
      <point x="968" y="1046"/>
      <point x="1062" y="910"/>
      <point x="1062" y="712" type="curve" smooth="yes"/>
      <point x="1062" y="520"/>
      <point x="978" y="380"/>
    </contour>
    <contour>
      <point x="332" y="-192" type="line"/>
      <point x="454" y="-20"/>
      <point x="574" y="150"/>
      <point x="712" y="344" type="curve"/>
      <point x="1110" y="866" type="line"/>
      <point x="1264" y="1050"/>
      <point x="1384" y="1196"/>
      <point x="1532" y="1374" type="curve"/>
      <point x="1274" y="1568" type="line"/>
      <point x="1140" y="1380"/>
      <point x="1030" y="1224"/>
      <point x="892" y="1030" type="curve"/>
      <point x="500" y="518" type="line"/>
      <point x="350" y="336"/>
      <point x="228" y="190"/>
      <point x="84" y="16" type="curve"/>
    </contour>
  </outline>
</glyph>
<glyph name="eth" format="2">
  <advance width="1196"/>
  <unicode hex="00F0"/>
  <outline>
    <contour>
      <point x="604" y="-32" type="curve" smooth="yes"/>
      <point x="1014" y="-32"/>
      <point x="1160" y="228"/>
      <point x="1160" y="606" type="curve" smooth="yes"/>
      <point x="1160" y="894"/>
      <point x="1040" y="1130"/>
      <point x="846" y="1312" type="curve"/>
      <point x="760" y="1388"/>
      <point x="668" y="1468"/>
      <point x="592" y="1534" type="curve"/>
      <point x="178" y="1388" type="line"/>
      <point x="310" y="1292"/>
      <point x="412" y="1216"/>
      <point x="508" y="1142" type="curve"/>
      <point x="638" y="994"/>
      <point x="708" y="834"/>
      <point x="708" y="658" type="curve" smooth="yes"/>
      <point x="708" y="424"/>
      <point x="674" y="330"/>
      <point x="602" y="322" type="curve"/>
      <point x="530" y="330"/>
      <point x="488" y="392"/>
      <point x="488" y="458" type="curve" smooth="yes"/>
      <point x="488" y="522"/>
      <point x="528" y="580"/>
      <point x="600" y="588" type="curve"/>
      <point x="628" y="584"/>
      <point x="680" y="566"/>
      <point x="736" y="522" type="curve"/>
      <point x="828" y="632"/>
      <point x="802" y="752"/>
      <point x="694" y="866" type="curve"/>
      <point x="652" y="828" type="line"/>
      <point x="604" y="864"/>
      <point x="492" y="894"/>
      <point x="404" y="894" type="curve" smooth="yes"/>
      <point x="196" y="894"/>
      <point x="36" y="752"/>
      <point x="36" y="478" type="curve" smooth="yes"/>
      <point x="36" y="210"/>
      <point x="200" y="-32"/>
    </contour>
    <contour>
      <point x="290" y="922" type="line"/>
      <point x="422" y="980"/>
      <point x="538" y="1028"/>
      <point x="644" y="1074" type="curve"/>
      <point x="742" y="1110" type="line"/>
      <point x="854" y="1144"/>
      <point x="984" y="1184"/>
      <point x="1116" y="1224" type="curve"/>
      <point x="1014" y="1508" type="line"/>
      <point x="886" y="1454"/>
      <point x="764" y="1402"/>
      <point x="660" y="1358" type="curve"/>
      <point x="556" y="1320" type="line"/>
      <point x="444" y="1286"/>
      <point x="322" y="1250"/>
      <point x="186" y="1208" type="curve"/>
    </contour>
  </outline>
</glyph>
<glyph name="divide" format="2">
  <advance width="1180"/>
  <unicode hex="00F7"/>
  <outline>
    <contour>
      <point x="80" y="412" type="line"/>
      <point x="230" y="418"/>
      <point x="382" y="424"/>
      <point x="496" y="428" type="curve"/>
      <point x="684" y="428" type="line"/>
      <point x="798" y="424"/>
      <point x="950" y="418"/>
      <point x="1100" y="412" type="curve"/>
      <point x="1100" y="824" type="line"/>
      <point x="950" y="818"/>
      <point x="798" y="812"/>
      <point x="684" y="808" type="curve"/>
      <point x="496" y="808" type="line"/>
      <point x="382" y="812"/>
      <point x="230" y="818"/>
      <point x="80" y="824" type="curve"/>
    </contour>
    <contour>
      <point x="587" y="-12" type="curve" smooth="yes"/>
      <point x="716" y="-12"/>
      <point x="794" y="60"/>
      <point x="794" y="204" type="curve" smooth="yes"/>
      <point x="794" y="315"/>
      <point x="716" y="383"/>
      <point x="589" y="383" type="curve" smooth="yes"/>
      <point x="459" y="383"/>
      <point x="382" y="315"/>
      <point x="382" y="204" type="curve" smooth="yes"/>
      <point x="382" y="60"/>
      <point x="459" y="-12"/>
    </contour>
    <contour>
      <point x="587" y="854" type="curve" smooth="yes"/>
      <point x="716" y="854"/>
      <point x="794" y="926"/>
      <point x="794" y="1070" type="curve" smooth="yes"/>
      <point x="794" y="1181"/>
      <point x="716" y="1249"/>
      <point x="589" y="1249" type="curve" smooth="yes"/>
      <point x="459" y="1249"/>
      <point x="382" y="1181"/>
      <point x="382" y="1070" type="curve" smooth="yes"/>
      <point x="382" y="926"/>
      <point x="459" y="854"/>
    </contour>
  </outline>
</glyph>
<glyph name="oslash" format="2">
  <advance width="1196"/>
  <unicode hex="00F8"/>
  <anchor x="598" y="1004" name="top"/>
  <outline>
    <contour>
      <point x="604" y="-32" type="curve" smooth="yes"/>
      <point x="970" y="-32"/>
      <point x="1160" y="194"/>
      <point x="1160" y="502" type="curve" smooth="yes"/>
      <point x="1160" y="800"/>
      <point x="986" y="1036"/>
      <point x="594" y="1036" type="curve" smooth="yes"/>
      <point x="212" y="1036"/>
      <point x="36" y="802"/>
      <point x="36" y="502" type="curve" smooth="yes"/>
      <point x="36" y="222"/>
      <point x="200" y="-32"/>
    </contour>
    <contour>
      <point x="604" y="282" type="curve"/>
      <point x="510" y="292"/>
      <point x="448" y="380"/>
      <point x="448" y="502" type="curve" smooth="yes"/>
      <point x="448" y="630"/>
      <point x="506" y="710"/>
      <point x="604" y="722" type="curve"/>
      <point x="700" y="704"/>
      <point x="748" y="630"/>
      <point x="748" y="502" type="curve" smooth="yes"/>
      <point x="748" y="372"/>
      <point x="694" y="292"/>
    </contour>
    <contour>
      <point x="234" y="-174" type="line"/>
      <point x="328" y="-42"/>
      <point x="416" y="82"/>
      <point x="518" y="226" type="curve"/>
      <point x="816" y="618" type="line"/>
      <point x="928" y="752"/>
      <point x="1020" y="862"/>
      <point x="1132" y="996" type="curve"/>
      <point x="934" y="1146" type="line"/>
      <point x="836" y="1006"/>
      <point x="754" y="888"/>
      <point x="652" y="740" type="curve"/>
      <point x="360" y="358" type="line"/>
      <point x="248" y="222"/>
      <point x="158" y="114"/>
      <point x="50" y="-18" type="curve"/>
    </contour>
  </outline>
</glyph>
<glyph name="kgreenlandic" format="2">
  <advance width="1228"/>
  <unicode hex="0138"/>
  <outline>
    <contour>
      <point x="660" y="0" type="curve"/>
      <point x="1252" y="0" type="line"/>
      <point x="1170" y="126"/>
      <point x="1086" y="254"/>
      <point x="1004" y="380" type="curve"/>
      <point x="852" y="642" type="line"/>
      <point x="874" y="452" type="line"/>
      <point x="984" y="634" type="line"/>
      <point x="1066" y="758"/>
      <point x="1148" y="880"/>
      <point x="1232" y="1004" type="curve"/>
      <point x="674" y="1004" type="line"/>
      <point x="654" y="924"/>
      <point x="636" y="846"/>
      <point x="616" y="766" type="curve"/>
      <point x="566" y="636" type="line"/>
      <point x="486" y="636" type="line"/>
      <point x="486" y="352" type="line"/>
      <point x="566" y="352" type="line"/>
      <point x="614" y="216" type="line"/>
      <point x="632" y="144"/>
      <point x="646" y="72"/>
    </contour>
    <contour>
      <point x="38" y="0" type="curve"/>
      <point x="554" y="0" type="line"/>
      <point x="542" y="114"/>
      <point x="530" y="214"/>
      <point x="518" y="332" type="curve"/>
      <point x="518" y="606" type="line"/>
      <point x="528" y="746"/>
      <point x="538" y="878"/>
      <point x="548" y="1016" type="curve"/>
      <point x="34" y="1004" type="line"/>
      <point x="48" y="866"/>
      <point x="58" y="746"/>
      <point x="74" y="546" type="curve"/>
      <point x="74" y="426" type="line"/>
      <point x="60" y="258"/>
      <point x="50" y="140"/>
    </contour>
  </outline>
</glyph>
<glyph name="Eng" format="2">
  <advance width="1512"/>
  <unicode hex="014A"/>
  <outline>
    <contour>
      <point x="830" y="-384" type="curve"/>
      <point x="1258" y="-384" type="line"/>
      <point x="1320" y="-290"/>
      <point x="1438" y="-74"/>
      <point x="1438" y="78" type="curve" smooth="yes"/>
      <point x="1438" y="260"/>
      <point x="1410" y="454"/>
      <point x="1410" y="654" type="curve"/>
      <point x="1410" y="948" type="line"/>
      <point x="1426" y="1144"/>
      <point x="1436" y="1272"/>
      <point x="1448" y="1426" type="curve"/>
      <point x="914" y="1426" type="line"/>
      <point x="926" y="1272"/>
      <point x="936" y="1144"/>
      <point x="952" y="948" type="curve"/>
      <point x="952" y="818" type="line"/>
      <point x="918" y="818" type="line"/>
      <point x="770" y="1048" type="line"/>
      <point x="712" y="1162"/>
      <point x="652" y="1282"/>
      <point x="580" y="1426" type="curve"/>
      <point x="64" y="1426" type="line"/>
      <point x="76" y="1272"/>
      <point x="86" y="1144"/>
      <point x="102" y="948" type="curve"/>
      <point x="102" y="458" type="line"/>
      <point x="88" y="274"/>
      <point x="76" y="146"/>
      <point x="64" y="0" type="curve"/>
      <point x="598" y="0" type="line"/>
      <point x="586" y="148"/>
      <point x="574" y="276"/>
      <point x="560" y="458" type="curve"/>
      <point x="560" y="608" type="line"/>
      <point x="592" y="608" type="line"/>
      <point x="746" y="376" type="line"/>
      <point x="822" y="236"/>
      <point x="884" y="120"/>
      <point x="948" y="0" type="curve"/>
      <point x="1072" y="0" type="line"/>
      <point x="910" y="216" type="line"/>
      <point x="910" y="82" type="line"/>
      <point x="882" y="-82"/>
      <point x="856" y="-234"/>
    </contour>
  </outline>
</glyph>
<glyph name="tbar" format="2">
  <advance width="872"/>
  <unicode hex="0167"/>
  <outline>
    <contour>
      <point x="60" y="348" type="line"/>
      <point x="176" y="356"/>
      <point x="290" y="362"/>
      <point x="386" y="368" type="curve"/>
      <point x="474" y="368" type="line"/>
      <point x="570" y="362"/>
      <point x="684" y="356"/>
      <point x="800" y="348" type="curve"/>
      <point x="800" y="630" type="line"/>
      <point x="684" y="630"/>
      <point x="572" y="630"/>
      <point x="474" y="630" type="curve"/>
      <point x="386" y="630" type="line"/>
      <point x="288" y="630"/>
      <point x="176" y="630"/>
      <point x="60" y="630" type="curve"/>
    </contour>
    <contour>
      <point x="552" y="-32" type="curve" smooth="yes"/>
      <point x="572" y="-32"/>
      <point x="718" y="-16"/>
      <point x="834" y="12" type="curve"/>
      <point x="814" y="324" type="line"/>
      <point x="760" y="302"/>
      <point x="700" y="282"/>
      <point x="686" y="282" type="curve" smooth="yes"/>
      <point x="622" y="282"/>
      <point x="592" y="336"/>
      <point x="592" y="434" type="curve" smooth="yes"/>
      <point x="592" y="900" type="line"/>
      <point x="604" y="1100"/>
      <point x="614" y="1242"/>
      <point x="628" y="1406" type="curve"/>
      <point x="118" y="1326" type="line"/>
      <point x="132" y="1188"/>
      <point x="142" y="1068"/>
      <point x="154" y="900" type="curve"/>
      <point x="154" y="570"/>
      <point x="144" y="432"/>
      <point x="144" y="320" type="curve" smooth="yes"/>
      <point x="144" y="54"/>
      <point x="286" y="-32"/>
    </contour>
    <contour>
      <point x="24" y="662" type="line"/>
      <point x="290" y="686" type="line"/>
      <point x="494" y="686" type="line"/>
      <point x="600" y="680"/>
      <point x="720" y="670"/>
      <point x="834" y="662" type="curve"/>
      <point x="834" y="1004" type="line"/>
      <point x="24" y="1004" type="line"/>
    </contour>
  </outline>
</glyph>
<glyph name="florin" format="2">
  <advance width="1120"/>
  <unicode hex="0192"/>
  <outline>
    <contour>
      <point x="244" y="-290" type="curve" smooth="yes"/>
      <point x="460" y="-290"/>
      <point x="700" y="-212"/>
      <point x="730" y="140" type="curve" smooth="yes"/>
      <point x="752" y="378"/>
      <point x="756" y="590"/>
      <point x="776" y="828" type="curve"/>
      <point x="794" y="866" type="line"/>
      <point x="772" y="896"/>
      <point x="734" y="950"/>
      <point x="736" y="964" type="curve"/>
      <point x="744" y="1042"/>
      <point x="796" y="1054"/>
      <point x="852" y="1054" type="curve" smooth="yes"/>
      <point x="864" y="1054"/>
      <point x="940" y="1038"/>
      <point x="1016" y="1020" type="curve"/>
      <point x="1082" y="1394" type="line"/>
      <point x="996" y="1404"/>
      <point x="856" y="1412"/>
      <point x="828" y="1412" type="curve" smooth="yes"/>
      <point x="602" y="1412"/>
      <point x="352" y="1334"/>
      <point x="322" y="982" type="curve" smooth="yes"/>
      <point x="298" y="702"/>
      <point x="296" y="420"/>
      <point x="272" y="140" type="curve" smooth="yes"/>
      <point x="266" y="78"/>
      <point x="236" y="68"/>
      <point x="198" y="68" type="curve" smooth="yes"/>
      <point x="188" y="68"/>
      <point x="120" y="84"/>
      <point x="52" y="102" type="curve"/>
      <point x="-14" y="-272" type="line"/>
      <point x="74" y="-282"/>
      <point x="216" y="-290"/>
    </contour>
    <contour>
      <point x="114" y="550" type="line"/>
      <point x="264" y="556"/>
      <point x="416" y="562"/>
      <point x="530" y="566" type="curve"/>
      <point x="618" y="566" type="line"/>
      <point x="732" y="562"/>
      <point x="884" y="556"/>
      <point x="1034" y="550" type="curve"/>
      <point x="1034" y="882" type="line"/>
      <point x="884" y="876"/>
      <point x="732" y="870"/>
      <point x="618" y="866" type="curve"/>
      <point x="530" y="866" type="line"/>
      <point x="416" y="870"/>
      <point x="264" y="876"/>
      <point x="114" y="882" type="curve"/>
    </contour>
  </outline>
</glyph>
<glyph name="ringhalfleft" format="2">
  <advance width="402"/>
  <unicode hex="02BF"/>
  <outline>
    <contour>
      <point x="360" y="1076" type="curve"/>
      <point x="360" y="1246" type="line"/>
      <point x="296" y="1256"/>
      <point x="258" y="1284"/>
      <point x="258" y="1346" type="curve" smooth="yes"/>
      <point x="258" y="1398"/>
      <point x="296" y="1436"/>
      <point x="362" y="1444" type="curve"/>
      <point x="362" y="1612" type="line"/>
      <point x="172" y="1612"/>
      <point x="50" y="1516"/>
      <point x="50" y="1348" type="curve" smooth="yes"/>
      <point x="50" y="1158"/>
      <point x="172" y="1076"/>
    </contour>
  </outline>
</glyph>
<glyph name="circumflexcomb" format="2">
  <unicode hex="0302"/>
  <anchor x="600" y="1004" name="_top"/>
  <anchor x="600" y="1510" name="top"/>
  <outline>
    <contour>
      <point x="754" y="1104" type="curve"/>
      <point x="1026" y="1108" type="line"/>
      <point x="966" y="1258"/>
      <point x="910" y="1402"/>
      <point x="852" y="1548" type="curve"/>
      <point x="424" y="1548" type="line"/>
      <point x="486" y="1434"/>
      <point x="628" y="1246"/>
    </contour>
    <contour>
      <point x="174" y="1108" type="curve"/>
      <point x="452" y="1108" type="line"/>
      <point x="576" y="1248"/>
      <point x="716" y="1436"/>
      <point x="776" y="1548" type="curve"/>
      <point x="348" y="1548" type="line"/>
      <point x="290" y="1402"/>
      <point x="234" y="1258"/>
    </contour>
  </outline>
</glyph>
<glyph name="dieresiscomb" format="2">
  <unicode hex="0308"/>
  <anchor x="598" y="1004" name="_top"/>
  <anchor x="596" y="1420" name="top"/>
  <outline>
    <contour>
      <point x="842" y="1076" type="curve" smooth="yes"/>
      <point x="976" y="1076"/>
      <point x="1054" y="1138"/>
      <point x="1054" y="1292" type="curve" smooth="yes"/>
      <point x="1054" y="1418"/>
      <point x="976" y="1486"/>
      <point x="844" y="1486" type="curve" smooth="yes"/>
      <point x="710" y="1486"/>
      <point x="632" y="1424"/>
      <point x="632" y="1292" type="curve" smooth="yes"/>
      <point x="632" y="1138"/>
      <point x="710" y="1076"/>
    </contour>
    <contour>
      <point x="354" y="1076" type="curve" smooth="yes"/>
      <point x="488" y="1076"/>
      <point x="566" y="1138"/>
      <point x="566" y="1292" type="curve" smooth="yes"/>
      <point x="566" y="1418"/>
      <point x="488" y="1486"/>
      <point x="356" y="1486" type="curve" smooth="yes"/>
      <point x="222" y="1486"/>
      <point x="144" y="1424"/>
      <point x="144" y="1292" type="curve" smooth="yes"/>
      <point x="144" y="1138"/>
      <point x="222" y="1076"/>
    </contour>
  </outline>
</glyph>
<glyph name="dblgravecomb" format="2">
  <unicode hex="030F"/>
  <anchor x="600" y="1004" name="_top"/>
  <anchor x="600" y="1534" name="top"/>
  <outline>
    <contour>
      <point x="290" y="1106" type="curve"/>
      <point x="542" y="1110" type="line"/>
      <point x="488" y="1262"/>
      <point x="436" y="1406"/>
      <point x="382" y="1552" type="curve"/>
      <point x="-54" y="1542" type="line"/>
      <point x="8" y="1432"/>
      <point x="168" y="1244"/>
    </contour>
    <contour>
      <point x="762" y="1106" type="curve"/>
      <point x="1008" y="1110" type="line"/>
      <point x="972" y="1262"/>
      <point x="936" y="1406"/>
      <point x="898" y="1552" type="curve"/>
      <point x="474" y="1542" type="line"/>
      <point x="524" y="1432"/>
      <point x="658" y="1244"/>
    </contour>
  </outline>
</glyph>
<glyph name="horncomb" format="2">
  <unicode hex="031B"/>
  <anchor x="600" y="1004" name="_topright"/>
  <outline>
    <contour>
      <point x="442" y="612" type="line"/>
      <point x="828" y="612"/>
      <point x="984" y="772"/>
      <point x="984" y="998" type="curve" smooth="yes"/>
      <point x="984" y="1022"/>
      <point x="950" y="1152"/>
      <point x="928" y="1236" type="curve"/>
      <point x="622" y="1220" type="line"/>
      <point x="630" y="1152"/>
      <point x="638" y="1086"/>
      <point x="644" y="998" type="curve"/>
      <point x="644" y="882"/>
      <point x="606" y="824"/>
      <point x="402" y="824" type="curve"/>
    </contour>
  </outline>
</glyph>
<glyph name="cedillacomb" format="2">
  <unicode hex="0327"/>
  <anchor x="600" y="0" name="_bottom"/>
  <outline>
    <contour>
      <point x="538" y="-456" type="curve" smooth="yes"/>
      <point x="798" y="-456"/>
      <point x="884" y="-374"/>
      <point x="884" y="-266" type="curve" smooth="yes"/>
      <point x="884" y="-168"/>
      <point x="814" y="-110"/>
      <point x="706" y="-80" type="curve"/>
      <point x="740" y="0" type="line"/>
      <point x="740" y="72" type="line"/>
      <point x="520" y="72" type="line"/>
      <point x="454" y="-84" type="line"/>
      <point x="524" y="-112"/>
      <point x="550" y="-132"/>
      <point x="550" y="-166" type="curve" smooth="yes"/>
      <point x="550" y="-202"/>
      <point x="518" y="-210"/>
      <point x="464" y="-216" type="curve"/>
      <point x="430" y="-212"/>
      <point x="400" y="-208"/>
      <point x="386" y="-206" type="curve"/>
      <point x="386" y="-440" type="line"/>
      <point x="432" y="-446"/>
      <point x="512" y="-456"/>
    </contour>
  </outline>
</glyph>
<glyph name="ogonekcomb" format="2">
  <unicode hex="0328"/>
  <anchor x="600" y="0" name="_ogonek"/>
  <outline>
    <contour>
      <point x="464" y="-456" type="curve" smooth="yes"/>
      <point x="488" y="-456"/>
      <point x="562" y="-448"/>
      <point x="616" y="-440" type="curve"/>
      <point x="616" y="-186" type="line"/>
      <point x="604" y="-188"/>
      <point x="576" y="-192"/>
      <point x="542" y="-198" type="curve"/>
      <point x="484" y="-192"/>
      <point x="452" y="-176"/>
      <point x="452" y="-138" type="curve" smooth="yes"/>
      <point x="452" y="-108"/>
      <point x="492" y="-66"/>
      <point x="610" y="0" type="curve"/>
      <point x="520" y="82" type="line"/>
      <point x="298" y="54" type="line"/>
      <point x="298" y="-30" type="line"/>
      <point x="214" y="-66"/>
      <point x="138" y="-160"/>
      <point x="138" y="-256" type="curve" smooth="yes"/>
      <point x="138" y="-368"/>
      <point x="224" y="-456"/>
    </contour>
  </outline>
</glyph>
<glyph name="macronbelowcomb" format="2">
  <unicode hex="0331"/>
  <anchor x="600" y="0" name="_bottom"/>
  <anchor x="600" y="0" name="bottom"/>
  <outline>
    <contour>
      <point x="228" y="-438" type="line"/>
      <point x="340" y="-434"/>
      <point x="472" y="-428"/>
      <point x="600" y="-422" type="curve"/>
      <point x="730" y="-428"/>
      <point x="860" y="-434"/>
      <point x="972" y="-438" type="curve"/>
      <point x="972" y="-86" type="line"/>
      <point x="862" y="-90"/>
      <point x="730" y="-96"/>
      <point x="600" y="-102" type="curve"/>
      <point x="472" y="-96"/>
      <point x="338" y="-90"/>
      <point x="228" y="-86" type="curve"/>
    </contour>
  </outline>
</glyph>
<glyph name="slashlongcomb" format="2">
  <unicode hex="0338"/>
  <anchor x="612" y="714" name="_center"/>
  <outline>
    <contour>
      <point x="132" y="-192" type="line"/>
      <point x="254" y="-20"/>
      <point x="374" y="150"/>
      <point x="512" y="344" type="curve"/>
      <point x="910" y="866" type="line"/>
      <point x="1064" y="1050"/>
      <point x="1184" y="1196"/>
      <point x="1332" y="1374" type="curve"/>
      <point x="1074" y="1568" type="line"/>
      <point x="940" y="1380"/>
      <point x="830" y="1224"/>
      <point x="692" y="1030" type="curve"/>
      <point x="300" y="518" type="line"/>
      <point x="150" y="336"/>
      <point x="28" y="190"/>
      <point x="-116" y="16" type="curve"/>
    </contour>
  </outline>
</glyph>
<glyph name="Germandbls" format="2">
  <advance width="1482"/>
  <unicode hex="1E9E"/>
  <outline>
    <contour>
      <point x="852" y="-12" type="curve" smooth="yes"/>
      <point x="1298" y="-12"/>
      <point x="1438" y="158"/>
      <point x="1438" y="424" type="curve" smooth="yes"/>
      <point x="1438" y="688"/>
      <point x="1292" y="818"/>
      <point x="936" y="876" type="curve"/>
      <point x="936" y="694" type="line"/>
      <point x="1116" y="804" type="line"/>
      <point x="1184" y="840"/>
      <point x="1250" y="874"/>
      <point x="1318" y="910" type="curve"/>
      <point x="1354" y="1336" type="line"/>
      <point x="1158" y="1388"/>
      <point x="862" y="1458"/>
      <point x="726" y="1458" type="curve" smooth="yes"/>
      <point x="270" y="1458"/>
      <point x="76" y="1254"/>
      <point x="76" y="878" type="curve" smooth="yes"/>
      <point x="76" y="738"/>
      <point x="86" y="598"/>
      <point x="86" y="458" type="curve"/>
      <point x="72" y="274"/>
      <point x="60" y="146"/>
      <point x="48" y="0" type="curve"/>
      <point x="614" y="0" type="line"/>
      <point x="602" y="148"/>
      <point x="590" y="276"/>
      <point x="576" y="458" type="curve"/>
      <point x="576" y="854" type="line" smooth="yes"/>
      <point x="576" y="1000"/>
      <point x="634" y="1056"/>
      <point x="754" y="1062" type="curve"/>
      <point x="806" y="1056"/>
      <point x="926" y="1010"/>
      <point x="1044" y="952" type="curve"/>
      <point x="1024" y="1100" type="line"/>
      <point x="874" y="976" type="line"/>
      <point x="818" y="936"/>
      <point x="772" y="904"/>
      <point x="720" y="868" type="curve"/>
      <point x="720" y="590" type="line"/>
      <point x="832" y="562"/>
      <point x="922" y="522"/>
      <point x="922" y="458" type="curve" smooth="yes"/>
      <point x="922" y="396"/>
      <point x="854" y="362"/>
      <point x="768" y="358" type="curve"/>
      <point x="738" y="360"/>
      <point x="704" y="366"/>
      <point x="678" y="372" type="curve"/>
      <point x="678" y="0" type="line"/>
      <point x="730" y="-4"/>
      <point x="840" y="-12"/>
    </contour>
  </outline>
</glyph>
<glyph name="endash" format="2">
  <advance width="1280"/>
  <unicode hex="2013"/>
  <outline>
    <contour>
      <point x="80" y="402" type="line"/>
      <point x="230" y="408"/>
      <point x="382" y="414"/>
      <point x="496" y="418" type="curve"/>
      <point x="784" y="418" type="line"/>
      <point x="898" y="414"/>
      <point x="1050" y="408"/>
      <point x="1200" y="402" type="curve"/>
      <point x="1200" y="814" type="line"/>
      <point x="1050" y="808"/>
      <point x="898" y="802"/>
      <point x="784" y="798" type="curve"/>
      <point x="496" y="798" type="line"/>
      <point x="382" y="802"/>
      <point x="230" y="808"/>
      <point x="80" y="814" type="curve"/>
    </contour>
  </outline>
</glyph>
<glyph name="emdash" format="2">
  <advance width="1620"/>
  <unicode hex="2014"/>
  <outline>
    <contour>
      <point x="80" y="402" type="line"/>
      <point x="276" y="408"/>
      <point x="474" y="414"/>
      <point x="622" y="418" type="curve"/>
      <point x="998" y="418" type="line"/>
      <point x="1146" y="414"/>
      <point x="1344" y="408"/>
      <point x="1540" y="402" type="curve"/>
      <point x="1540" y="814" type="line"/>
      <point x="1344" y="808"/>
      <point x="1146" y="802"/>
      <point x="998" y="798" type="curve"/>
      <point x="622" y="798" type="line"/>
      <point x="474" y="802"/>
      <point x="276" y="808"/>
      <point x="80" y="814" type="curve"/>
    </contour>
  </outline>
</glyph>
<glyph name="dagger" format="2">
  <advance width="1220"/>
  <unicode hex="2020"/>
  <outline>
    <contour>
      <point x="364" y="0" type="curve"/>
      <point x="856" y="0" type="line"/>
      <point x="844" y="222"/>
      <point x="834" y="406"/>
      <point x="820" y="666" type="curve"/>
      <point x="820" y="898" type="line"/>
      <point x="832" y="1056"/>
      <point x="844" y="1216"/>
      <point x="856" y="1380" type="curve"/>
      <point x="364" y="1380" type="line"/>
      <point x="376" y="1214"/>
      <point x="388" y="1056"/>
      <point x="400" y="898" type="curve"/>
      <point x="400" y="666" type="line"/>
      <point x="386" y="406"/>
      <point x="376" y="222"/>
    </contour>
    <contour>
      <point x="80" y="632" type="line"/>
      <point x="230" y="638"/>
      <point x="382" y="644"/>
      <point x="496" y="648" type="curve"/>
      <point x="724" y="648" type="line"/>
      <point x="838" y="644"/>
      <point x="990" y="638"/>
      <point x="1140" y="632" type="curve"/>
      <point x="1140" y="1024" type="line"/>
      <point x="990" y="1018"/>
      <point x="838" y="1012"/>
      <point x="724" y="1008" type="curve"/>
      <point x="496" y="1008" type="line"/>
      <point x="382" y="1012"/>
      <point x="230" y="1018"/>
      <point x="80" y="1024" type="curve"/>
    </contour>
  </outline>
</glyph>
<glyph name="perthousand" format="2">
  <advance width="2920"/>
  <unicode hex="2030"/>
  <outline>
    <contour>
      <point x="332" y="0" type="curve"/>
      <point x="784" y="0" type="line"/>
      <point x="862" y="144"/>
      <point x="932" y="274"/>
      <point x="1032" y="460" type="curve"/>
      <point x="1334" y="954" type="line"/>
      <point x="1460" y="1140"/>
      <point x="1554" y="1278"/>
      <point x="1654" y="1426" type="curve"/>
      <point x="1206" y="1426" type="line"/>
      <point x="1126" y="1278"/>
      <point x="1050" y="1140"/>
      <point x="950" y="954" type="curve"/>
      <point x="648" y="460" type="line"/>
      <point x="522" y="276"/>
      <point x="432" y="146"/>
    </contour>
    <contour>
      <point x="464" y="708" type="curve" smooth="yes"/>
      <point x="732" y="708"/>
      <point x="892" y="846"/>
      <point x="892" y="1088" type="curve" smooth="yes"/>
      <point x="892" y="1298"/>
      <point x="732" y="1458"/>
      <point x="466" y="1458" type="curve" smooth="yes"/>
      <point x="200" y="1458"/>
      <point x="40" y="1298"/>
      <point x="40" y="1088" type="curve" smooth="yes"/>
      <point x="40" y="846"/>
      <point x="200" y="708"/>
    </contour>
    <contour>
      <point x="466" y="970" type="curve"/>
      <point x="406" y="980"/>
      <point x="358" y="1018"/>
      <point x="358" y="1082" type="curve" smooth="yes"/>
      <point x="358" y="1138"/>
      <point x="402" y="1182"/>
      <point x="466" y="1194" type="curve"/>
      <point x="530" y="1182"/>
      <point x="574" y="1134"/>
      <point x="574" y="1082" type="curve" smooth="yes"/>
      <point x="574" y="1018"/>
      <point x="528" y="980"/>
    </contour>
    <contour>
      <point x="1520" y="-32" type="curve" smooth="yes"/>
      <point x="1788" y="-32"/>
      <point x="1948" y="106"/>
      <point x="1948" y="348" type="curve" smooth="yes"/>
      <point x="1948" y="558"/>
      <point x="1788" y="718"/>
      <point x="1522" y="718" type="curve" smooth="yes"/>
      <point x="1256" y="718"/>
      <point x="1096" y="558"/>
      <point x="1096" y="348" type="curve" smooth="yes"/>
      <point x="1096" y="106"/>
      <point x="1256" y="-32"/>
    </contour>
    <contour>
      <point x="1520" y="230" type="curve"/>
      <point x="1460" y="240"/>
      <point x="1412" y="278"/>
      <point x="1412" y="342" type="curve" smooth="yes"/>
      <point x="1412" y="398"/>
      <point x="1456" y="442"/>
      <point x="1520" y="454" type="curve"/>
      <point x="1584" y="442"/>
      <point x="1628" y="394"/>
      <point x="1628" y="342" type="curve" smooth="yes"/>
      <point x="1628" y="278"/>
      <point x="1582" y="240"/>
    </contour>
    <contour>
      <point x="2432" y="-32" type="curve" smooth="yes"/>
      <point x="2700" y="-32"/>
      <point x="2860" y="106"/>
      <point x="2860" y="348" type="curve" smooth="yes"/>
      <point x="2860" y="558"/>
      <point x="2700" y="718"/>
      <point x="2434" y="718" type="curve" smooth="yes"/>
      <point x="2168" y="718"/>
      <point x="2008" y="558"/>
      <point x="2008" y="348" type="curve" smooth="yes"/>
      <point x="2008" y="106"/>
      <point x="2168" y="-32"/>
    </contour>
    <contour>
      <point x="2432" y="230" type="curve"/>
      <point x="2372" y="240"/>
      <point x="2324" y="278"/>
      <point x="2324" y="342" type="curve" smooth="yes"/>
      <point x="2324" y="398"/>
      <point x="2368" y="442"/>
      <point x="2432" y="454" type="curve"/>
      <point x="2496" y="442"/>
      <point x="2540" y="394"/>
      <point x="2540" y="342" type="curve" smooth="yes"/>
      <point x="2540" y="278"/>
      <point x="2494" y="240"/>
    </contour>
  </outline>
</glyph>
<glyph name="fraction" format="2">
  <advance width="664"/>
  <unicode hex="2044"/>
  <outline>
    <contour>
      <point x="-276" y="0" type="curve"/>
      <point x="216" y="0" type="line"/>
      <point x="280" y="146"/>
      <point x="336" y="278"/>
      <point x="416" y="460" type="curve"/>
      <point x="666" y="954" type="line"/>
      <point x="774" y="1140"/>
      <point x="852" y="1276"/>
      <point x="938" y="1426" type="curve"/>
      <point x="450" y="1426" type="line"/>
      <point x="384" y="1278"/>
      <point x="324" y="1140"/>
      <point x="242" y="954" type="curve"/>
      <point x="-8" y="460" type="line"/>
      <point x="-114" y="278"/>
      <point x="-190" y="148"/>
    </contour>
  </outline>
</glyph>
<glyph name="franc" format="2">
  <advance width="1212"/>
  <unicode hex="20A3"/>
  <outline>
    <contour>
      <point x="156" y="0" type="curve"/>
      <point x="686" y="0" type="line"/>
      <point x="674" y="142"/>
      <point x="664" y="266"/>
      <point x="650" y="440" type="curve"/>
      <point x="650" y="846" type="line"/>
      <point x="660" y="1018"/>
      <point x="668" y="1146"/>
      <point x="678" y="1304" type="curve"/>
      <point x="650" y="1380" type="line"/>
      <point x="156" y="1380" type="line"/>
      <point x="168" y="1232"/>
      <point x="178" y="1104"/>
      <point x="192" y="922" type="curve"/>
      <point x="192" y="440" type="line"/>
      <point x="178" y="266"/>
      <point x="168" y="142"/>
    </contour>
    <contour>
      <point x="560" y="996" type="line"/>
      <point x="764" y="996" type="line"/>
      <point x="922" y="978"/>
      <point x="1040" y="964"/>
      <point x="1146" y="952" type="curve"/>
      <point x="1146" y="1380" type="line"/>
      <point x="560" y="1380" type="line"/>
    </contour>
    <contour>
      <point x="530" y="544" type="line"/>
      <point x="762" y="544" type="line"/>
      <point x="908" y="536"/>
      <point x="1016" y="530"/>
      <point x="1124" y="524" type="curve"/>
      <point x="1124" y="872" type="line"/>
      <point x="1022" y="866"/>
      <point x="916" y="860"/>
      <point x="762" y="852" type="curve"/>
      <point x="530" y="852" type="line"/>
    </contour>
    <contour>
      <point x="50" y="154" type="line"/>
      <point x="200" y="160"/>
      <point x="352" y="166"/>
      <point x="466" y="170" type="curve"/>
      <point x="554" y="170" type="line"/>
      <point x="668" y="166"/>
      <point x="820" y="160"/>
      <point x="970" y="154" type="curve"/>
      <point x="970" y="446" type="line"/>
      <point x="820" y="440"/>
      <point x="668" y="434"/>
      <point x="554" y="430" type="curve"/>
      <point x="466" y="430" type="line"/>
      <point x="352" y="434"/>
      <point x="200" y="440"/>
      <point x="50" y="446" type="curve"/>
    </contour>
  </outline>
</glyph>
<glyph name="lira" format="2">
  <advance width="1246"/>
  <unicode hex="20A4"/>
  <outline>
    <contour>
      <point x="70" y="0" type="line"/>
      <point x="1186" y="0" type="line"/>
      <point x="1186" y="442" type="line"/>
      <point x="1042" y="430"/>
      <point x="838" y="414"/>
      <point x="666" y="400" type="curve"/>
      <point x="412" y="400" type="line"/>
      <point x="502" y="340" type="line"/>
      <point x="646" y="538"/>
      <point x="678" y="598"/>
      <point x="678" y="660" type="curve" smooth="yes"/>
      <point x="678" y="838" type="line" smooth="yes"/>
      <point x="678" y="964"/>
      <point x="742" y="1018"/>
      <point x="846" y="1026" type="curve"/>
      <point x="890" y="1026"/>
      <point x="980" y="1004"/>
      <point x="1104" y="950" type="curve"/>
      <point x="1146" y="1346" type="line"/>
      <point x="1062" y="1376"/>
      <point x="938" y="1412"/>
      <point x="806" y="1412" type="curve" smooth="yes"/>
      <point x="386" y="1412"/>
      <point x="200" y="1208"/>
      <point x="200" y="852" type="curve" smooth="yes"/>
      <point x="200" y="736"/>
      <point x="208" y="622"/>
      <point x="208" y="508" type="curve"/>
      <point x="208" y="466"/>
      <point x="184" y="410"/>
      <point x="70" y="240" type="curve"/>
    </contour>
    <contour>
      <point x="86" y="734" type="line"/>
      <point x="236" y="736"/>
      <point x="388" y="738"/>
      <point x="502" y="740" type="curve"/>
      <point x="590" y="740" type="line"/>
      <point x="704" y="738"/>
      <point x="856" y="736"/>
      <point x="1006" y="734" type="curve"/>
      <point x="1006" y="936" type="line"/>
      <point x="856" y="930"/>
      <point x="704" y="924"/>
      <point x="590" y="920" type="curve"/>
      <point x="502" y="920" type="line"/>
      <point x="388" y="924"/>
      <point x="236" y="930"/>
      <point x="86" y="936" type="curve"/>
    </contour>
    <contour>
      <point x="86" y="466" type="line"/>
      <point x="236" y="472"/>
      <point x="388" y="478"/>
      <point x="502" y="482" type="curve"/>
      <point x="590" y="482" type="line"/>
      <point x="704" y="478"/>
      <point x="856" y="472"/>
      <point x="1006" y="466" type="curve"/>
      <point x="1006" y="668" type="line"/>
      <point x="856" y="666"/>
      <point x="704" y="664"/>
      <point x="590" y="662" type="curve"/>
      <point x="502" y="662" type="line"/>
      <point x="388" y="664"/>
      <point x="236" y="666"/>
      <point x="86" y="668" type="curve"/>
    </contour>
  </outline>
</glyph>
<glyph name="peseta" format="2">
  <advance width="1620"/>
  <unicode hex="20A7"/>
  <outline>
    <contour>
      <point x="636" y="410" type="line"/>
      <point x="708" y="408"/>
      <point x="826" y="404"/>
      <point x="916" y="402" type="curve"/>
      <point x="1242" y="402"/>
      <point x="1386" y="602"/>
      <point x="1386" y="902" type="curve" smooth="yes"/>
      <point x="1386" y="1278"/>
      <point x="1196" y="1392"/>
      <point x="844" y="1392" type="curve"/>
      <point x="550" y="1386"/>
      <point x="318" y="1382"/>
      <point x="196" y="1380" type="curve"/>
      <point x="664" y="1028" type="line"/>
      <point x="812" y="1028" type="line" smooth="yes"/>
      <point x="874" y="1028"/>
      <point x="912" y="982"/>
      <point x="912" y="884" type="curve" smooth="yes"/>
      <point x="912" y="774"/>
      <point x="870" y="738"/>
      <point x="802" y="738" type="curve" smooth="yes"/>
      <point x="636" y="738" type="line"/>
    </contour>
    <contour>
      <point x="196" y="0" type="curve"/>
      <point x="728" y="0" type="line"/>
      <point x="716" y="142"/>
      <point x="706" y="266"/>
      <point x="692" y="440" type="curve"/>
      <point x="692" y="846" type="line"/>
      <point x="702" y="1028"/>
      <point x="710" y="1156"/>
      <point x="718" y="1304" type="curve"/>
      <point x="196" y="1380" type="line"/>
      <point x="208" y="1232"/>
      <point x="218" y="1104"/>
      <point x="232" y="922" type="curve"/>
      <point x="232" y="440" type="line"/>
      <point x="218" y="266"/>
      <point x="208" y="142"/>
    </contour>
    <contour>
      <point x="50" y="716" type="line"/>
      <point x="200" y="722"/>
      <point x="352" y="728"/>
      <point x="466" y="732" type="curve"/>
      <point x="1154" y="732" type="line"/>
      <point x="1268" y="728"/>
      <point x="1420" y="722"/>
      <point x="1570" y="716" type="curve"/>
      <point x="1570" y="1048" type="line"/>
      <point x="1420" y="1042"/>
      <point x="1268" y="1036"/>
      <point x="1154" y="1032" type="curve"/>
      <point x="466" y="1032" type="line"/>
      <point x="352" y="1036"/>
      <point x="200" y="1042"/>
      <point x="50" y="1048" type="curve"/>
    </contour>
  </outline>
</glyph>
<glyph name="dong" format="2">
  <advance width="1156"/>
  <unicode hex="20AB"/>
  <outline>
    <contour>
      <point x="388" y="266" type="curve" smooth="yes"/>
      <point x="446" y="266"/>
      <point x="516" y="296"/>
      <point x="618" y="388" type="curve"/>
      <point x="640" y="388" type="line"/>
      <point x="664" y="292" type="line"/>
      <point x="1002" y="292" type="line"/>
      <point x="990" y="408"/>
      <point x="980" y="506"/>
      <point x="968" y="632" type="curve"/>
      <point x="968" y="1080" type="line"/>
      <point x="968" y="1234"/>
      <point x="968" y="1370"/>
      <point x="968" y="1492" type="curve"/>
      <point x="568" y="1466" type="line"/>
      <point x="582" y="1320"/>
      <point x="592" y="1206"/>
      <point x="604" y="1080" type="curve"/>
      <point x="604" y="1022" type="line"/>
      <point x="578" y="1022" type="line"/>
      <point x="510" y="1082"/>
      <point x="430" y="1122"/>
      <point x="390" y="1122" type="curve" smooth="yes"/>
      <point x="174" y="1122"/>
      <point x="70" y="932"/>
      <point x="70" y="694" type="curve" smooth="yes"/>
      <point x="70" y="474"/>
      <point x="166" y="266"/>
    </contour>
    <contour>
      <point x="82" y="-16" type="line"/>
      <point x="232" y="-10"/>
      <point x="384" y="-4"/>
      <point x="498" y="0" type="curve"/>
      <point x="586" y="0" type="line"/>
      <point x="700" y="-4"/>
      <point x="852" y="-10"/>
      <point x="1002" y="-16" type="curve"/>
      <point x="1002" y="216" type="line"/>
      <point x="852" y="210"/>
      <point x="700" y="204"/>
      <point x="586" y="200" type="curve"/>
      <point x="498" y="200" type="line"/>
      <point x="384" y="204"/>
      <point x="232" y="210"/>
      <point x="82" y="216" type="curve"/>
    </contour>
    <contour>
      <point x="536" y="568" type="curve"/>
      <point x="476" y="574"/>
      <point x="442" y="630"/>
      <point x="442" y="690" type="curve" smooth="yes"/>
      <point x="442" y="756"/>
      <point x="474" y="808"/>
      <point x="536" y="814" type="curve"/>
      <point x="560" y="810"/>
      <point x="588" y="800"/>
      <point x="604" y="788" type="curve"/>
      <point x="604" y="610" type="line"/>
      <point x="588" y="588"/>
      <point x="558" y="572"/>
    </contour>
    <contour>
      <point x="340" y="1176" type="line"/>
      <point x="476" y="1182"/>
      <point x="614" y="1188"/>
      <point x="718" y="1192" type="curve"/>
      <point x="748" y="1192" type="line"/>
      <point x="852" y="1188"/>
      <point x="990" y="1182"/>
      <point x="1126" y="1176" type="curve"/>
      <point x="1126" y="1388" type="line"/>
      <point x="990" y="1382"/>
      <point x="852" y="1376"/>
      <point x="748" y="1372" type="curve"/>
      <point x="718" y="1372" type="line"/>
      <point x="614" y="1376"/>
      <point x="476" y="1382"/>
      <point x="340" y="1388" type="curve"/>
    </contour>
  </outline>
</glyph>
<glyph name="euro" format="2">
  <advance width="1412"/>
  <unicode hex="20AC"/>
  <outline>
    <contour>
      <point x="916" y="-30" type="curve" smooth="yes"/>
      <point x="984" y="-30"/>
      <point x="1224" y="-2"/>
      <point x="1332" y="24" type="curve"/>
      <point x="1312" y="434" type="line"/>
      <point x="1202" y="398"/>
      <point x="1026" y="348"/>
      <point x="984" y="348" type="curve"/>
      <point x="766" y="356"/>
      <point x="686" y="506"/>
      <point x="686" y="688" type="curve" smooth="yes"/>
      <point x="686" y="914"/>
      <point x="790" y="1010"/>
      <point x="950" y="1018" type="curve"/>
      <point x="978" y="1018"/>
      <point x="1154" y="972"/>
      <point x="1306" y="920" type="curve"/>
      <point x="1340" y="1336" type="line"/>
      <point x="1182" y="1376"/>
      <point x="964" y="1410"/>
      <point x="892" y="1410" type="curve" smooth="yes"/>
      <point x="424" y="1410"/>
      <point x="198" y="1098"/>
      <point x="198" y="686" type="curve" smooth="yes"/>
      <point x="198" y="240"/>
      <point x="464" y="-30"/>
    </contour>
    <contour>
      <point x="52" y="446" type="line"/>
      <point x="202" y="452"/>
      <point x="354" y="458"/>
      <point x="468" y="462" type="curve"/>
      <point x="696" y="462" type="line"/>
      <point x="810" y="460"/>
      <point x="962" y="458"/>
      <point x="1112" y="456" type="curve"/>
      <point x="1112" y="648" type="line"/>
      <point x="962" y="646"/>
      <point x="810" y="644"/>
      <point x="696" y="642" type="curve"/>
      <point x="468" y="642" type="line"/>
      <point x="354" y="644"/>
      <point x="202" y="646"/>
      <point x="52" y="648" type="curve"/>
    </contour>
    <contour>
      <point x="52" y="714" type="line"/>
      <point x="202" y="716"/>
      <point x="354" y="718"/>
      <point x="468" y="720" type="curve"/>
      <point x="756" y="720" type="line"/>
      <point x="870" y="718"/>
      <point x="1022" y="716"/>
      <point x="1172" y="714" type="curve"/>
      <point x="1172" y="906" type="line"/>
      <point x="1022" y="904"/>
      <point x="870" y="902"/>
      <point x="756" y="900" type="curve"/>
      <point x="468" y="900" type="line"/>
      <point x="354" y="904"/>
      <point x="202" y="910"/>
      <point x="52" y="916" type="curve"/>
    </contour>
  </outline>
</glyph>
<glyph name="guarani" format="2">
  <advance width="1386"/>
  <unicode hex="20B2"/>
  <outline>
    <contour>
      <point x="790" y="-28" type="curve" smooth="yes"/>
      <point x="862" y="-28"/>
      <point x="1190" y="2"/>
      <point x="1314" y="24" type="curve"/>
      <point x="1238" y="444" type="line"/>
      <point x="1102" y="398"/>
      <point x="890" y="338"/>
      <point x="834" y="338" type="curve"/>
      <point x="634" y="344"/>
      <point x="532" y="498"/>
      <point x="532" y="686" type="curve" smooth="yes"/>
      <point x="532" y="922"/>
      <point x="672" y="1014"/>
      <point x="828" y="1020" type="curve"/>
      <point x="862" y="1020"/>
      <point x="1064" y="956"/>
      <point x="1242" y="878" type="curve"/>
      <point x="1274" y="1316" type="line"/>
      <point x="1104" y="1366"/>
      <point x="866" y="1412"/>
      <point x="788" y="1412" type="curve" smooth="yes"/>
      <point x="312" y="1412"/>
      <point x="48" y="1118"/>
      <point x="48" y="688" type="curve" smooth="yes"/>
      <point x="48" y="260"/>
      <point x="328" y="-28"/>
    </contour>
    <contour>
      <point x="588" y="-274" type="curve"/>
      <point x="956" y="-274" type="line"/>
      <point x="946" y="2"/>
      <point x="934" y="308"/>
      <point x="932" y="384" type="curve"/>
      <point x="932" y="948" type="line"/>
      <point x="934" y="1024"/>
      <point x="946" y="1330"/>
      <point x="956" y="1606" type="curve"/>
      <point x="588" y="1606" type="line"/>
      <point x="598" y="1330"/>
      <point x="610" y="1024"/>
      <point x="612" y="948" type="curve"/>
      <point x="612" y="384" type="line"/>
      <point x="610" y="308"/>
      <point x="598" y="2"/>
    </contour>
    <contour>
      <point x="840" y="24" type="curve"/>
      <point x="1314" y="24" type="line"/>
      <point x="1306" y="174"/>
      <point x="1300" y="282"/>
      <point x="1294" y="398" type="curve"/>
      <point x="1308" y="528"/>
      <point x="1318" y="620"/>
      <point x="1330" y="732" type="curve"/>
      <point x="820" y="732" type="line"/>
      <point x="832" y="618"/>
      <point x="842" y="526"/>
      <point x="856" y="398" type="curve"/>
      <point x="852" y="284"/>
      <point x="846" y="170"/>
    </contour>
  </outline>
</glyph>
<glyph name="rupeeIndian" format="2">
  <advance width="1290"/>
  <unicode hex="20B9"/>
  <outline>
    <contour>
      <point x="608" y="440" type="curve"/>
      <point x="870" y="440"/>
      <point x="986" y="610"/>
      <point x="986" y="782" type="curve" smooth="yes"/>
      <point x="986" y="934"/>
      <point x="928" y="1010"/>
      <point x="824" y="1048" type="curve"/>
      <point x="824" y="1080" type="line"/>
      <point x="902" y="1080" type="line"/>
      <point x="982" y="1074"/>
      <point x="1114" y="1064"/>
      <point x="1220" y="1056" type="curve"/>
      <point x="1220" y="1380" type="line"/>
      <point x="100" y="1380" type="line"/>
      <point x="100" y="1056" type="line"/>
      <point x="184" y="1064"/>
      <point x="270" y="1072"/>
      <point x="354" y="1080" type="curve"/>
      <point x="472" y="1080"/>
      <point x="518" y="1002"/>
      <point x="518" y="866" type="curve" smooth="yes"/>
      <point x="518" y="682"/>
      <point x="446" y="650"/>
      <point x="344" y="650" type="curve"/>
      <point x="278" y="654"/>
      <point x="188" y="660"/>
      <point x="100" y="666" type="curve"/>
      <point x="100" y="470" type="line"/>
      <point x="272" y="470" type="line"/>
      <point x="460" y="448" type="line"/>
      <point x="494" y="446"/>
      <point x="566" y="442"/>
    </contour>
    <contour>
      <point x="558" y="0" type="curve"/>
      <point x="1224" y="0" type="line"/>
      <point x="1094" y="106"/>
      <point x="922" y="250"/>
      <point x="786" y="362" type="curve"/>
      <point x="496" y="626" type="line"/>
      <point x="100" y="470" type="line"/>
      <point x="332" y="250" type="line"/>
      <point x="402" y="174"/>
      <point x="480" y="88"/>
    </contour>
    <contour>
      <point x="100" y="758" type="line"/>
      <point x="250" y="764"/>
      <point x="402" y="770"/>
      <point x="516" y="774" type="curve"/>
      <point x="804" y="774" type="line"/>
      <point x="918" y="770"/>
      <point x="1070" y="764"/>
      <point x="1220" y="758" type="curve"/>
      <point x="1220" y="970" type="line"/>
      <point x="1070" y="964"/>
      <point x="918" y="958"/>
      <point x="804" y="954" type="curve"/>
      <point x="516" y="954" type="line"/>
      <point x="402" y="958"/>
      <point x="250" y="964"/>
      <point x="100" y="970" type="curve"/>
    </contour>
  </outline>
</glyph>
<glyph name="liraTurkish" format="2">
  <advance width="1512"/>
  <unicode hex="20BA"/>
  <outline>
    <contour>
      <point x="216" y="0" type="curve"/>
      <point x="640" y="0" type="line"/>
      <point x="740" y="76" type="line"/>
      <point x="734" y="222"/>
      <point x="730" y="340"/>
      <point x="722" y="516" type="curve"/>
      <point x="722" y="922" type="line"/>
      <point x="736" y="1104"/>
      <point x="746" y="1232"/>
      <point x="758" y="1380" type="curve"/>
      <point x="216" y="1380" type="line"/>
      <point x="228" y="1232"/>
      <point x="238" y="1104"/>
      <point x="252" y="922" type="curve"/>
      <point x="252" y="440" type="line"/>
      <point x="238" y="266"/>
      <point x="228" y="142"/>
    </contour>
    <contour>
      <point x="640" y="0" type="line"/>
      <point x="708" y="0" type="line" smooth="yes"/>
      <point x="1086" y="0"/>
      <point x="1312" y="164"/>
      <point x="1402" y="450" type="curve"/>
      <point x="1424" y="548"/>
      <point x="1442" y="662"/>
      <point x="1460" y="786" type="curve"/>
      <point x="976" y="786" type="line"/>
      <point x="974" y="720"/>
      <point x="970" y="662"/>
      <point x="968" y="612" type="curve"/>
      <point x="938" y="454"/>
      <point x="862" y="374"/>
      <point x="736" y="374" type="curve" smooth="yes"/>
      <point x="640" y="374" type="line"/>
    </contour>
    <contour>
      <point x="140" y="462" type="line"/>
      <point x="292" y="536"/>
      <point x="404" y="590"/>
      <point x="512" y="642" type="curve"/>
      <point x="684" y="720" type="line"/>
      <point x="800" y="766"/>
      <point x="916" y="814"/>
      <point x="1070" y="876" type="curve"/>
      <point x="986" y="1060" type="line"/>
      <point x="890" y="1016"/>
      <point x="726" y="940"/>
      <point x="610" y="886" type="curve"/>
      <point x="440" y="808" type="line"/>
      <point x="328" y="760"/>
      <point x="178" y="698"/>
      <point x="56" y="646" type="curve"/>
    </contour>
    <contour>
      <point x="136" y="750" type="line"/>
      <point x="270" y="812"/>
      <point x="398" y="872"/>
      <point x="512" y="924" type="curve"/>
      <point x="684" y="1000" type="line"/>
      <point x="798" y="1050"/>
      <point x="930" y="1106"/>
      <point x="1068" y="1164" type="curve"/>
      <point x="984" y="1348" type="line"/>
      <point x="832" y="1274"/>
      <point x="720" y="1220"/>
      <point x="610" y="1166" type="curve"/>
      <point x="440" y="1088" type="line"/>
      <point x="328" y="1044"/>
      <point x="190" y="988"/>
      <point x="54" y="934" type="curve"/>
    </contour>
  </outline>
</glyph>
<glyph name="partialdiff" format="2">
  <advance width="1196"/>
  <unicode hex="2202"/>
  <outline>
    <contour>
      <point x="604" y="-32" type="curve" smooth="yes"/>
      <point x="1014" y="-32"/>
      <point x="1160" y="228"/>
      <point x="1160" y="650" type="curve" smooth="yes"/>
      <point x="1160" y="1232"/>
      <point x="872" y="1412"/>
      <point x="518" y="1412" type="curve" smooth="yes"/>
      <point x="450" y="1412"/>
      <point x="210" y="1366"/>
      <point x="102" y="1342" type="curve"/>
      <point x="138" y="928" type="line"/>
      <point x="252" y="968"/>
      <point x="464" y="1032"/>
      <point x="486" y="1032" type="curve"/>
      <point x="662" y="1018"/>
      <point x="708" y="934"/>
      <point x="708" y="670" type="curve" smooth="yes"/>
      <point x="708" y="424"/>
      <point x="674" y="330"/>
      <point x="602" y="322" type="curve"/>
      <point x="530" y="330"/>
      <point x="488" y="392"/>
      <point x="488" y="458" type="curve" smooth="yes"/>
      <point x="488" y="522"/>
      <point x="528" y="580"/>
      <point x="600" y="588" type="curve"/>
      <point x="628" y="584"/>
      <point x="680" y="566"/>
      <point x="736" y="522" type="curve"/>
      <point x="828" y="632"/>
      <point x="802" y="752"/>
      <point x="716" y="846" type="curve"/>
      <point x="674" y="808" type="line"/>
      <point x="626" y="844"/>
      <point x="514" y="874"/>
      <point x="426" y="874" type="curve" smooth="yes"/>
      <point x="196" y="874"/>
      <point x="36" y="732"/>
      <point x="36" y="478" type="curve" smooth="yes"/>
      <point x="36" y="210"/>
      <point x="200" y="-32"/>
    </contour>
  </outline>
</glyph>
<glyph name="increment" format="2">
  <advance width="1514"/>
  <unicode hex="2206"/>
  <outline>
    <contour>
      <point x="60" y="0" type="line"/>
      <point x="596" y="0" type="line"/>
      <point x="596" y="254" type="line"/>
      <point x="608" y="346"/>
      <point x="624" y="462"/>
      <point x="636" y="552" type="curve"/>
      <point x="736" y="1020" type="line"/>
      <point x="768" y="1020" type="line"/>
      <point x="866" y="546" type="line"/>
      <point x="876" y="464"/>
      <point x="890" y="352"/>
      <point x="902" y="254" type="curve"/>
      <point x="902" y="0" type="line"/>
      <point x="1454" y="0" type="line"/>
      <point x="1454" y="308" type="line"/>
      <point x="1416" y="410"/>
      <point x="1372" y="524"/>
      <point x="1334" y="626" type="curve"/>
      <point x="1192" y="1048" type="line"/>
      <point x="1160" y="1196"/>
      <point x="1134" y="1306"/>
      <point x="1108" y="1426" type="curve"/>
      <point x="412" y="1426" type="line"/>
      <point x="384" y="1310"/>
      <point x="358" y="1200"/>
      <point x="322" y="1050" type="curve"/>
      <point x="182" y="634" type="line"/>
      <point x="144" y="534"/>
      <point x="98" y="412"/>
      <point x="60" y="310" type="curve"/>
    </contour>
    <contour>
      <point x="362" y="0" type="line"/>
      <point x="1162" y="0" type="line"/>
      <point x="1162" y="400" type="line"/>
      <point x="362" y="400" type="line"/>
    </contour>
  </outline>
</glyph>
<glyph name="summation" format="2">
  <advance width="1388"/>
  <unicode hex="2211"/>
  <outline>
    <contour>
      <point x="60" y="-384" type="line"/>
      <point x="1308" y="-384" type="line"/>
      <point x="1308" y="70" type="line"/>
      <point x="1188" y="56"/>
      <point x="1004" y="34"/>
      <point x="874" y="18" type="curve"/>
      <point x="634" y="18" type="line"/>
      <point x="630" y="-122" type="line"/>
      <point x="806" y="120" type="line"/>
      <point x="920" y="260"/>
      <point x="1040" y="408"/>
      <point x="1154" y="548" type="curve"/>
      <point x="1042" y="676"/>
      <point x="924" y="810"/>
      <point x="810" y="940" type="curve"/>
      <point x="636" y="1162" type="line"/>
      <point x="622" y="1024" type="line"/>
      <point x="892" y="1024" type="line"/>
      <point x="1014" y="1006"/>
      <point x="1150" y="986"/>
      <point x="1300" y="964" type="curve"/>
      <point x="1300" y="1426" type="line"/>
      <point x="100" y="1426" type="line"/>
      <point x="100" y="1064" type="line"/>
      <point x="222" y="930"/>
      <point x="340" y="800"/>
      <point x="460" y="668" type="curve"/>
      <point x="694" y="384" type="line"/>
      <point x="694" y="742" type="line"/>
      <point x="476" y="440" type="line"/>
      <point x="350" y="276"/>
      <point x="174" y="48"/>
      <point x="60" y="-98" type="curve"/>
    </contour>
  </outline>
</glyph>
<glyph name="minus" format="2">
  <advance width="1180"/>
  <unicode hex="2212"/>
  <outline>
    <contour>
      <point x="80" y="412" type="line"/>
      <point x="230" y="418"/>
      <point x="382" y="424"/>
      <point x="496" y="428" type="curve"/>
      <point x="684" y="428" type="line"/>
      <point x="798" y="424"/>
      <point x="950" y="418"/>
      <point x="1100" y="412" type="curve"/>
      <point x="1100" y="824" type="line"/>
      <point x="950" y="818"/>
      <point x="798" y="812"/>
      <point x="684" y="808" type="curve"/>
      <point x="496" y="808" type="line"/>
      <point x="382" y="812"/>
      <point x="230" y="818"/>
      <point x="80" y="824" type="curve"/>
    </contour>
  </outline>
</glyph>
<glyph name="radical" format="2">
  <advance width="1328"/>
  <unicode hex="221A"/>
  <outline>
    <contour>
      <point x="454" y="0" type="curve"/>
      <point x="1076" y="0" type="line"/>
      <point x="1094" y="150"/>
      <point x="1108" y="272"/>
      <point x="1130" y="456" type="curve"/>
      <point x="1264" y="1162" type="line"/>
      <point x="1314" y="1356"/>
      <point x="1346" y="1482"/>
      <point x="1386" y="1636" type="curve"/>
      <point x="922" y="1636" type="line"/>
      <point x="912" y="1520"/>
      <point x="906" y="1442"/>
      <point x="894" y="1302" type="curve"/>
      <point x="750" y="502" type="line"/>
      <point x="718" y="502" type="line"/>
      <point x="660" y="736" type="line"/>
      <point x="650" y="812"/>
      <point x="636" y="914"/>
      <point x="624" y="1004" type="curve"/>
      <point x="160" y="1004" type="line"/>
      <point x="292" y="602" type="line"/>
      <point x="358" y="358"/>
      <point x="404" y="184"/>
    </contour>
    <contour>
      <point x="40" y="608" type="line"/>
      <point x="190" y="614"/>
      <point x="342" y="620"/>
      <point x="456" y="624" type="curve"/>
      <point x="456" y="1004" type="line"/>
      <point x="342" y="1008"/>
      <point x="190" y="1014"/>
      <point x="40" y="1020" type="curve"/>
    </contour>
  </outline>
</glyph>
<glyph name="infinity" format="2">
  <advance width="1844"/>
  <unicode hex="221E"/>
  <outline>
    <contour>
      <point x="1320" y="100" type="curve" smooth="yes"/>
      <point x="1650" y="100"/>
      <point x="1800" y="348"/>
      <point x="1800" y="620" type="curve" smooth="yes"/>
      <point x="1800" y="912"/>
      <point x="1650" y="1140"/>
      <point x="1320" y="1140" type="curve" smooth="yes"/>
      <point x="1076" y="1140"/>
      <point x="908" y="920"/>
      <point x="760" y="714" type="curve"/>
      <point x="760" y="524" type="line"/>
      <point x="910" y="312"/>
      <point x="1090" y="100"/>
    </contour>
    <contour>
      <point x="524" y="100" type="curve" smooth="yes"/>
      <point x="754" y="100"/>
      <point x="934" y="312"/>
      <point x="1084" y="524" type="curve"/>
      <point x="1084" y="714" type="line"/>
      <point x="936" y="920"/>
      <point x="768" y="1140"/>
      <point x="524" y="1140" type="curve" smooth="yes"/>
      <point x="194" y="1140"/>
      <point x="44" y="912"/>
      <point x="44" y="620" type="curve" smooth="yes"/>
      <point x="44" y="348"/>
      <point x="194" y="100"/>
    </contour>
    <contour>
      <point x="556" y="444" type="curve"/>
      <point x="486" y="452"/>
      <point x="444" y="526"/>
      <point x="444" y="620" type="curve" smooth="yes"/>
      <point x="444" y="722"/>
      <point x="484" y="788"/>
      <point x="554" y="796" type="curve"/>
      <point x="598" y="792"/>
      <point x="646" y="738"/>
      <point x="708" y="620" type="curve"/>
      <point x="646" y="506"/>
      <point x="598" y="448"/>
    </contour>
    <contour>
      <point x="1288" y="444" type="curve"/>
      <point x="1246" y="448"/>
      <point x="1198" y="506"/>
      <point x="1136" y="620" type="curve"/>
      <point x="1198" y="738"/>
      <point x="1246" y="792"/>
      <point x="1290" y="796" type="curve"/>
      <point x="1360" y="788"/>
      <point x="1400" y="722"/>
      <point x="1400" y="620" type="curve" smooth="yes"/>
      <point x="1400" y="526"/>
      <point x="1358" y="452"/>
    </contour>
  </outline>
</glyph>
<glyph name="integral" format="2">
  <advance width="872"/>
  <unicode hex="222B"/>
  <outline>
    <contour>
      <point x="254" y="-414" type="curve" smooth="yes"/>
      <point x="460" y="-414"/>
      <point x="678" y="-336"/>
      <point x="678" y="56" type="curve" smooth="yes"/>
      <point x="678" y="224"/>
      <point x="648" y="712"/>
      <point x="648" y="1040" type="curve" smooth="yes"/>
      <point x="648" y="1118"/>
      <point x="688" y="1134"/>
      <point x="732" y="1140" type="curve"/>
      <point x="740" y="1140"/>
      <point x="790" y="1124"/>
      <point x="842" y="1106" type="curve"/>
      <point x="874" y="1480" type="line"/>
      <point x="788" y="1490"/>
      <point x="646" y="1498"/>
      <point x="618" y="1498" type="curve" smooth="yes"/>
      <point x="412" y="1498"/>
      <point x="194" y="1420"/>
      <point x="194" y="1028" type="curve" smooth="yes"/>
      <point x="194" y="860"/>
      <point x="224" y="372"/>
      <point x="224" y="44" type="curve" smooth="yes"/>
      <point x="224" y="-34"/>
      <point x="184" y="-50"/>
      <point x="140" y="-56" type="curve"/>
      <point x="132" y="-56"/>
      <point x="82" y="-40"/>
      <point x="30" y="-22" type="curve"/>
      <point x="-2" y="-396" type="line"/>
      <point x="84" y="-406"/>
      <point x="226" y="-414"/>
    </contour>
  </outline>
</glyph>
<glyph name="lessequal" format="2">
  <advance width="1180"/>
  <unicode hex="2264"/>
  <outline>
    <contour>
      <point x="1100" y="406" type="curve"/>
      <point x="1100" y="844" type="line"/>
      <point x="1006" y="868"/>
      <point x="912" y="892"/>
      <point x="818" y="916" type="curve"/>
      <point x="670" y="962" type="line"/>
      <point x="670" y="994" type="line"/>
      <point x="818" y="1040" type="line"/>
      <point x="912" y="1064"/>
      <point x="1006" y="1088"/>
      <point x="1100" y="1112" type="curve"/>
      <point x="1100" y="1550" type="line"/>
      <point x="946" y="1488"/>
      <point x="808" y="1432"/>
      <point x="684" y="1382" type="curve"/>
      <point x="496" y="1316" type="line"/>
      <point x="372" y="1278"/>
      <point x="230" y="1234"/>
      <point x="80" y="1188" type="curve"/>
      <point x="80" y="768" type="line"/>
      <point x="230" y="722"/>
      <point x="372" y="678"/>
      <point x="496" y="640" type="curve"/>
      <point x="684" y="574" type="line"/>
      <point x="808" y="524"/>
      <point x="946" y="468"/>
    </contour>
    <contour>
      <point x="80" y="-16" type="line"/>
      <point x="230" y="-10"/>
      <point x="382" y="-4"/>
      <point x="496" y="0" type="curve"/>
      <point x="684" y="0" type="line"/>
      <point x="798" y="-4"/>
      <point x="950" y="-10"/>
      <point x="1100" y="-16" type="curve"/>
      <point x="1100" y="396" type="line"/>
      <point x="950" y="390"/>
      <point x="798" y="384"/>
      <point x="684" y="380" type="curve"/>
      <point x="496" y="380" type="line"/>
      <point x="382" y="384"/>
      <point x="230" y="390"/>
      <point x="80" y="396" type="curve"/>
    </contour>
  </outline>
</glyph>
<glyph name="greaterequal" format="2">
  <advance width="1180"/>
  <unicode hex="2265"/>
  <outline>
    <contour>
      <point x="80" y="-16" type="line"/>
      <point x="230" y="-10"/>
      <point x="382" y="-4"/>
      <point x="496" y="0" type="curve"/>
      <point x="684" y="0" type="line"/>
      <point x="798" y="-4"/>
      <point x="950" y="-10"/>
      <point x="1100" y="-16" type="curve"/>
      <point x="1100" y="396" type="line"/>
      <point x="950" y="390"/>
      <point x="798" y="384"/>
      <point x="684" y="380" type="curve"/>
      <point x="496" y="380" type="line"/>
      <point x="382" y="384"/>
      <point x="230" y="390"/>
      <point x="80" y="396" type="curve"/>
    </contour>
    <contour>
      <point x="80" y="406" type="line"/>
      <point x="234" y="468"/>
      <point x="372" y="524"/>
      <point x="496" y="574" type="curve"/>
      <point x="684" y="640" type="line"/>
      <point x="808" y="678"/>
      <point x="950" y="722"/>
      <point x="1100" y="768" type="curve"/>
      <point x="1100" y="1188" type="line"/>
      <point x="950" y="1234"/>
      <point x="808" y="1278"/>
      <point x="684" y="1316" type="curve"/>
      <point x="496" y="1382" type="line"/>
      <point x="372" y="1432"/>
      <point x="234" y="1488"/>
      <point x="80" y="1550" type="curve"/>
      <point x="80" y="1112" type="line"/>
      <point x="174" y="1088"/>
      <point x="268" y="1064"/>
      <point x="362" y="1040" type="curve"/>
      <point x="510" y="994" type="line"/>
      <point x="510" y="962" type="line"/>
      <point x="362" y="916" type="line"/>
      <point x="268" y="892"/>
      <point x="174" y="868"/>
      <point x="80" y="844" type="curve"/>
    </contour>
  </outline>
</glyph>
<glyph name="H.bar" format="2">
  <advance width="1522"/>
  <anchor x="762" y="0" name="bottom"/>
  <anchor x="762" y="714" name="center"/>
  <anchor x="762" y="1426" name="top"/>
  <anchor x="86" y="1426" name="topleft"/>
  <outline>
    <contour>
      <point x="890" y="0" type="curve"/>
      <point x="1458" y="0" type="line"/>
      <point x="1446" y="148"/>
      <point x="1434" y="276"/>
      <point x="1420" y="458" type="curve"/>
      <point x="1420" y="948" type="line"/>
      <point x="1436" y="1144"/>
      <point x="1446" y="1272"/>
      <point x="1458" y="1426" type="curve"/>
      <point x="890" y="1426" type="line"/>
      <point x="902" y="1272"/>
      <point x="912" y="1144"/>
      <point x="928" y="948" type="curve"/>
      <point x="928" y="458" type="line"/>
      <point x="914" y="274"/>
      <point x="902" y="146"/>
    </contour>
    <contour>
      <point x="64" y="0" type="curve"/>
      <point x="632" y="0" type="line"/>
      <point x="620" y="148"/>
      <point x="608" y="276"/>
      <point x="594" y="458" type="curve"/>
      <point x="594" y="948" type="line"/>
      <point x="610" y="1144"/>
      <point x="620" y="1272"/>
      <point x="632" y="1426" type="curve"/>
      <point x="64" y="1426" type="line"/>
      <point x="76" y="1272"/>
      <point x="86" y="1144"/>
      <point x="102" y="948" type="curve"/>
      <point x="102" y="458" type="line"/>
      <point x="88" y="274"/>
      <point x="76" y="146"/>
    </contour>
    <contour>
      <point x="472" y="462" type="line"/>
      <point x="1052" y="462" type="line"/>
      <point x="1052" y="846" type="line"/>
      <point x="472" y="846" type="line"/>
    </contour>
  </outline>
</glyph>
<glyph name="OE.001" format="2">
  <advance width="2170"/>
  <anchor x="1086" y="0" name="bottom"/>
  <anchor x="1086" y="1426" name="top"/>
  <outline>
    <contour>
      <point x="794" y="-32" type="curve" smooth="yes"/>
      <point x="1258" y="-32"/>
      <point x="1468" y="284"/>
      <point x="1468" y="712" type="curve"/>
      <point x="1472" y="712" type="line"/>
      <point x="1472" y="1124"/>
      <point x="1280" y="1458"/>
      <point x="786" y="1458" type="curve" smooth="yes"/>
      <point x="292" y="1458"/>
      <point x="48" y="1126"/>
      <point x="48" y="710" type="curve" smooth="yes"/>
      <point x="48" y="322"/>
      <point x="264" y="-32"/>
    </contour>
    <contour>
      <point x="812" y="364" type="curve"/>
      <point x="644" y="380"/>
      <point x="560" y="520"/>
      <point x="560" y="712" type="curve" smooth="yes"/>
      <point x="560" y="910"/>
      <point x="650" y="1046"/>
      <point x="812" y="1062" type="curve"/>
      <point x="968" y="1046"/>
      <point x="1062" y="910"/>
      <point x="1062" y="712" type="curve" smooth="yes"/>
      <point x="1062" y="520"/>
      <point x="978" y="380"/>
    </contour>
    <contour>
      <point x="1024" y="0" type="curve"/>
      <point x="1580" y="0" type="line"/>
      <point x="1580" y="80" type="line"/>
      <point x="1568" y="228"/>
      <point x="1556" y="356"/>
      <point x="1542" y="538" type="curve"/>
      <point x="1542" y="868" type="line"/>
      <point x="1556" y="1058"/>
      <point x="1568" y="1192"/>
      <point x="1580" y="1346" type="curve"/>
      <point x="1580" y="1426" type="line"/>
      <point x="1024" y="1426" type="line"/>
      <point x="1036" y="1272"/>
      <point x="1046" y="1144"/>
      <point x="1062" y="948" type="curve"/>
      <point x="1062" y="458" type="line"/>
      <point x="1048" y="274"/>
      <point x="1036" y="146"/>
    </contour>
    <contour>
      <point x="1490" y="0" type="line"/>
      <point x="2090" y="0" type="line"/>
      <point x="2090" y="422" type="line"/>
      <point x="1972" y="410"/>
      <point x="1846" y="398"/>
      <point x="1704" y="386" type="curve"/>
      <point x="1490" y="386" type="line"/>
    </contour>
    <contour>
      <point x="1428" y="542" type="line"/>
      <point x="1672" y="542" type="line"/>
      <point x="1830" y="532"/>
      <point x="1938" y="526"/>
      <point x="2054" y="520" type="curve"/>
      <point x="2054" y="910" type="line"/>
      <point x="1944" y="904"/>
      <point x="1836" y="896"/>
      <point x="1672" y="886" type="curve"/>
      <point x="1428" y="886" type="line"/>
    </contour>
    <contour>
      <point x="1458" y="1040" type="line"/>
      <point x="1672" y="1040" type="line"/>
      <point x="1844" y="1024"/>
      <point x="1964" y="1014"/>
      <point x="2076" y="1004" type="curve"/>
      <point x="2076" y="1426" type="line"/>
      <point x="1458" y="1426" type="line"/>
    </contour>
  </outline>
</glyph>
<glyph name="_Q_tail" format="2">
  <advance width="1566"/>
  <anchor x="784" y="0" name="_bottom"/>
  <outline>
    <contour>
      <point x="1072" y="-370" type="curve"/>
      <point x="1592" y="-148" type="line"/>
      <point x="1438" y="-58"/>
      <point x="1334" y="4"/>
      <point x="1224" y="68" type="curve"/>
      <point x="994" y="256" type="line"/>
      <point x="730" y="-4" type="line"/>
      <point x="870" y="-140" type="line"/>
      <point x="934" y="-212"/>
      <point x="1004" y="-292"/>
    </contour>
  </outline>
</glyph>
<glyph name="_exclam" format="2">
  <advance width="590"/>
  <outline>
    <contour>
      <point x="118" y="566" type="curve"/>
      <point x="476" y="570" type="line"/>
      <point x="500" y="876"/>
      <point x="526" y="1178"/>
      <point x="550" y="1478" type="curve"/>
      <point x="40" y="1466" type="line"/>
      <point x="66" y="1170"/>
      <point x="92" y="870"/>
    </contour>
  </outline>
</glyph>
<glyph name="_strokeshortcomb.Eth" format="2">
  <advance width="1470"/>
  <anchor x="736" y="714" name="_center"/>
  <outline>
    <contour>
      <point x="-32" y="532" type="line"/>
      <point x="94" y="540"/>
      <point x="216" y="546"/>
      <point x="320" y="552" type="curve"/>
      <point x="416" y="552" type="line"/>
      <point x="522" y="546"/>
      <point x="642" y="538"/>
      <point x="768" y="532" type="curve"/>
      <point x="768" y="894" type="line"/>
      <point x="644" y="888"/>
      <point x="522" y="880"/>
      <point x="416" y="874" type="curve"/>
      <point x="320" y="874" type="line"/>
      <point x="214" y="880"/>
      <point x="94" y="888"/>
      <point x="-32" y="894" type="curve"/>
    </contour>
  </outline>
</glyph>
<glyph name="_strokeshortcomb.Tbar" format="2">
  <advance width="1470"/>
  <anchor x="736" y="714" name="_center"/>
  <outline>
    <contour>
      <point x="296" y="522" type="line"/>
      <point x="434" y="530"/>
      <point x="568" y="536"/>
      <point x="684" y="542" type="curve"/>
      <point x="788" y="542" type="line"/>
      <point x="906" y="536"/>
      <point x="1038" y="528"/>
      <point x="1176" y="522" type="curve"/>
      <point x="1176" y="904" type="line"/>
      <point x="1040" y="898"/>
      <point x="906" y="890"/>
      <point x="788" y="884" type="curve"/>
      <point x="684" y="884" type="line"/>
      <point x="566" y="890"/>
      <point x="434" y="898"/>
      <point x="296" y="904" type="curve"/>
    </contour>
  </outline>
</glyph>
<glyph name="brevecomb_tildecomb" format="2">
  <anchor x="600" y="1004" name="_top"/>
  <outline>
    <contour>
      <point x="598" y="1076" type="curve" smooth="yes"/>
      <point x="886" y="1076"/>
      <point x="1022" y="1196"/>
      <point x="1022" y="1484" type="curve"/>
      <point x="738" y="1484" type="line"/>
      <point x="738" y="1402"/>
      <point x="698" y="1346"/>
      <point x="598" y="1336" type="curve"/>
      <point x="500" y="1346"/>
      <point x="460" y="1402"/>
      <point x="460" y="1496" type="curve"/>
      <point x="176" y="1484" type="line"/>
      <point x="176" y="1196"/>
      <point x="314" y="1076"/>
    </contour>
    <contour>
      <point x="770" y="1540" type="curve" smooth="yes"/>
      <point x="902" y="1540"/>
      <point x="990" y="1664"/>
      <point x="990" y="1884" type="curve"/>
      <point x="794" y="1884" type="line"/>
      <point x="774" y="1850"/>
      <point x="746" y="1808"/>
      <point x="720" y="1804" type="curve"/>
      <point x="678" y="1810"/>
      <point x="578" y="1922"/>
      <point x="444" y="1922" type="curve" smooth="yes"/>
      <point x="304" y="1922"/>
      <point x="210" y="1798"/>
      <point x="210" y="1578" type="curve"/>
      <point x="404" y="1578" type="line"/>
      <point x="424" y="1608"/>
      <point x="458" y="1654"/>
      <point x="486" y="1658" type="curve"/>
      <point x="538" y="1652"/>
      <point x="624" y="1540"/>
    </contour>
  </outline>
</glyph>
<glyph name="cent.BRACKET.140" format="2">
  <advance width="948"/>
  <anchor x="548" y="0" name="bottom"/>
  <anchor x="548" y="1004" name="top"/>
  <outline>
    <contour>
      <point x="388" y="-274" type="curve"/>
      <point x="736" y="-274" type="line"/>
      <point x="730" y="-110"/>
      <point x="724" y="66"/>
      <point x="718" y="198" type="curve"/>
      <point x="406" y="198" type="line"/>
      <point x="400" y="66"/>
      <point x="394" y="-110"/>
    </contour>
    <contour>
      <point x="404" y="826" type="curve"/>
      <point x="720" y="826" type="line"/>
      <point x="724" y="950"/>
      <point x="730" y="1108"/>
      <point x="736" y="1256" type="curve"/>
      <point x="388" y="1256" type="line"/>
      <point x="394" y="1108"/>
      <point x="400" y="950"/>
    </contour>
    <contour>
      <point x="586" y="-24" type="curve" smooth="yes"/>
      <point x="638" y="-24"/>
      <point x="820" y="-4"/>
      <point x="902" y="14" type="curve"/>
      <point x="886" y="380" type="line"/>
      <point x="826" y="360"/>
      <point x="728" y="332"/>
      <point x="706" y="332" type="curve"/>
      <point x="576" y="334"/>
      <point x="488" y="396"/>
      <point x="488" y="512" type="curve" smooth="yes"/>
      <point x="488" y="606"/>
      <point x="544" y="660"/>
      <point x="616" y="666" type="curve"/>
      <point x="638" y="666"/>
      <point x="766" y="632"/>
      <point x="878" y="592" type="curve"/>
      <point x="908" y="966" type="line"/>
      <point x="786" y="1002"/>
      <point x="616" y="1034"/>
      <point x="562" y="1034" type="curve" smooth="yes"/>
      <point x="208" y="1034"/>
      <point x="36" y="808"/>
      <point x="36" y="498" type="curve" smooth="yes"/>
      <point x="36" y="190"/>
      <point x="240" y="-24"/>
    </contour>
  </outline>
</glyph>
<glyph name="circumflexcomb.case" format="2">
  <anchor x="600" y="1004" name="_top"/>
  <anchor x="600" y="1490" name="top"/>
  <outline>
    <contour>
      <point x="754" y="1104" type="curve"/>
      <point x="1026" y="1108" type="line"/>
      <point x="966" y="1244"/>
      <point x="910" y="1374"/>
      <point x="852" y="1508" type="curve"/>
      <point x="424" y="1508" type="line"/>
      <point x="486" y="1404"/>
      <point x="628" y="1232"/>
    </contour>
    <contour>
      <point x="174" y="1108" type="curve"/>
      <point x="452" y="1108" type="line"/>
      <point x="576" y="1234"/>
      <point x="716" y="1406"/>
      <point x="776" y="1508" type="curve"/>
      <point x="348" y="1508" type="line"/>
      <point x="290" y="1374"/>
      <point x="234" y="1244"/>
    </contour>
  </outline>
</glyph>
<glyph name="circumflexcomb.narrow" format="2">
  <anchor x="600" y="1004" name="_top"/>
  <anchor x="600" y="1510" name="top"/>
  <outline>
    <contour>
      <point x="736" y="1104" type="curve"/>
      <point x="994" y="1108" type="line"/>
      <point x="936" y="1258"/>
      <point x="882" y="1398"/>
      <point x="824" y="1548" type="curve"/>
      <point x="444" y="1548" type="line"/>
      <point x="500" y="1434"/>
      <point x="624" y="1246"/>
    </contour>
    <contour>
      <point x="206" y="1108" type="curve"/>
      <point x="470" y="1108" type="line"/>
      <point x="578" y="1248"/>
      <point x="702" y="1436"/>
      <point x="756" y="1548" type="curve"/>
      <point x="376" y="1548" type="line"/>
      <point x="318" y="1398"/>
      <point x="266" y="1262"/>
    </contour>
  </outline>
</glyph>
<glyph name="circumflexcomb_acutecomb.case" format="2">
  <anchor x="600" y="1004" name="_top"/>
  <outline>
    <contour>
      <point x="890" y="1408" type="curve"/>
      <point x="1136" y="1410" type="line"/>
      <point x="1244" y="1532"/>
      <point x="1386" y="1698"/>
      <point x="1442" y="1794" type="curve"/>
      <point x="1028" y="1786" type="line"/>
      <point x="982" y="1662"/>
      <point x="938" y="1538"/>
    </contour>
    <contour>
      <point x="204" y="1108" type="curve"/>
      <point x="462" y="1108" type="line"/>
      <point x="578" y="1230"/>
      <point x="708" y="1392"/>
      <point x="764" y="1490" type="curve"/>
      <point x="366" y="1490" type="line"/>
      <point x="312" y="1362"/>
      <point x="260" y="1238"/>
    </contour>
    <contour>
      <point x="744" y="1104" type="curve"/>
      <point x="996" y="1108" type="line"/>
      <point x="940" y="1240"/>
      <point x="888" y="1362"/>
      <point x="834" y="1490" type="curve"/>
      <point x="436" y="1490" type="line"/>
      <point x="494" y="1390"/>
      <point x="626" y="1228"/>
    </contour>
  </outline>
</glyph>
<glyph name="circumflexcomb_gravecomb.case" format="2">
  <anchor x="600" y="1004" name="_top"/>
  <outline>
    <contour>
      <point x="964" y="1408" type="curve"/>
      <point x="1210" y="1410" type="line"/>
      <point x="1160" y="1548"/>
      <point x="1118" y="1666"/>
      <point x="1072" y="1794" type="curve"/>
      <point x="658" y="1786" type="line"/>
      <point x="714" y="1690"/>
      <point x="856" y="1528"/>
    </contour>
    <contour>
      <point x="204" y="1108" type="curve"/>
      <point x="462" y="1108" type="line"/>
      <point x="578" y="1230"/>
      <point x="708" y="1392"/>
      <point x="764" y="1490" type="curve"/>
      <point x="366" y="1490" type="line"/>
      <point x="312" y="1362"/>
      <point x="260" y="1238"/>
    </contour>
    <contour>
      <point x="744" y="1104" type="curve"/>
      <point x="996" y="1108" type="line"/>
      <point x="940" y="1240"/>
      <point x="888" y="1362"/>
      <point x="834" y="1490" type="curve"/>
      <point x="436" y="1490" type="line"/>
      <point x="494" y="1390"/>
      <point x="626" y="1228"/>
    </contour>
  </outline>
</glyph>
<glyph name="circumflexcomb_tildecomb" format="2">
  <anchor x="600" y="1004" name="_top"/>
  <outline>
    <contour>
      <point x="770" y="1540" type="curve" smooth="yes"/>
      <point x="902" y="1540"/>
      <point x="990" y="1664"/>
      <point x="990" y="1884" type="curve"/>
      <point x="794" y="1884" type="line"/>
      <point x="774" y="1850"/>
      <point x="746" y="1808"/>
      <point x="720" y="1804" type="curve"/>
      <point x="678" y="1810"/>
      <point x="578" y="1922"/>
      <point x="444" y="1922" type="curve" smooth="yes"/>
      <point x="304" y="1922"/>
      <point x="210" y="1798"/>
      <point x="210" y="1578" type="curve"/>
      <point x="404" y="1578" type="line"/>
      <point x="424" y="1608"/>
      <point x="458" y="1654"/>
      <point x="486" y="1658" type="curve"/>
      <point x="538" y="1652"/>
      <point x="624" y="1540"/>
    </contour>
    <contour>
      <point x="204" y="1108" type="curve"/>
      <point x="462" y="1108" type="line"/>
      <point x="578" y="1228"/>
      <point x="708" y="1392"/>
      <point x="764" y="1488" type="curve"/>
      <point x="366" y="1488" type="line"/>
      <point x="312" y="1362"/>
      <point x="260" y="1238"/>
    </contour>
    <contour>
      <point x="744" y="1104" type="curve"/>
      <point x="996" y="1108" type="line"/>
      <point x="940" y="1240"/>
      <point x="888" y="1362"/>
      <point x="834" y="1488" type="curve"/>
      <point x="436" y="1488" type="line"/>
      <point x="494" y="1390"/>
      <point x="626" y="1228"/>
    </contour>
  </outline>
</glyph>
<glyph name="colonsign.BRACKET.140" format="2">
  <advance width="1302"/>
  <outline>
    <contour>
      <point x="786" y="-30" type="curve" smooth="yes"/>
      <point x="858" y="-30"/>
      <point x="1108" y="8"/>
      <point x="1222" y="42" type="curve"/>
      <point x="1202" y="474" type="line"/>
      <point x="1086" y="422"/>
      <point x="898" y="348"/>
      <point x="854" y="348" type="curve"/>
      <point x="636" y="356"/>
      <point x="536" y="506"/>
      <point x="536" y="688" type="curve" smooth="yes"/>
      <point x="536" y="914"/>
      <point x="660" y="1012"/>
      <point x="820" y="1018" type="curve"/>
      <point x="850" y="1018"/>
      <point x="1034" y="946"/>
      <point x="1194" y="862" type="curve"/>
      <point x="1228" y="1316" type="line"/>
      <point x="1064" y="1366"/>
      <point x="836" y="1410"/>
      <point x="762" y="1410" type="curve" smooth="yes"/>
      <point x="294" y="1410"/>
      <point x="48" y="1098"/>
      <point x="48" y="686" type="curve" smooth="yes"/>
      <point x="48" y="240"/>
      <point x="334" y="-30"/>
    </contour>
    <contour>
      <point x="252" y="-274" type="curve"/>
      <point x="572" y="-274" type="line"/>
      <point x="600" y="-70"/>
      <point x="630" y="146"/>
      <point x="648" y="278" type="curve"/>
      <point x="360" y="278" type="line"/>
      <point x="334" y="146"/>
      <point x="292" y="-74"/>
    </contour>
    <contour>
      <point x="630" y="-274" type="curve"/>
      <point x="950" y="-274" type="line"/>
      <point x="970" y="-112"/>
      <point x="990" y="58"/>
      <point x="1006" y="186" type="curve"/>
      <point x="714" y="186" type="line"/>
      <point x="690" y="56"/>
      <point x="660" y="-112"/>
    </contour>
    <contour>
      <point x="448" y="1208" type="curve"/>
      <point x="744" y="1208" type="line"/>
      <point x="766" y="1328"/>
      <point x="794" y="1476"/>
      <point x="818" y="1606" type="curve"/>
      <point x="498" y="1606" type="line"/>
      <point x="482" y="1470"/>
      <point x="464" y="1328"/>
    </contour>
    <contour>
      <point x="810" y="1120" type="curve"/>
      <point x="1100" y="1120" type="line"/>
      <point x="1126" y="1250"/>
      <point x="1162" y="1434"/>
      <point x="1196" y="1606" type="curve"/>
      <point x="876" y="1606" type="line"/>
      <point x="852" y="1432"/>
      <point x="828" y="1252"/>
    </contour>
  </outline>
</glyph>
<glyph name="dollar.BRACKET.140" format="2">
  <advance width="1176"/>
  <outline>
    <contour>
      <point x="562" y="-30" type="curve" smooth="yes"/>
      <point x="964" y="-30"/>
      <point x="1138" y="130"/>
      <point x="1138" y="414" type="curve" smooth="yes"/>
      <point x="1138" y="650"/>
      <point x="1032" y="752"/>
      <point x="710" y="840" type="curve" smooth="yes"/>
      <point x="594" y="872"/>
      <point x="544" y="894"/>
      <point x="544" y="952" type="curve" smooth="yes"/>
      <point x="544" y="1006"/>
      <point x="590" y="1030"/>
      <point x="664" y="1030" type="curve" smooth="yes"/>
      <point x="696" y="1030"/>
      <point x="870" y="980"/>
      <point x="1034" y="920" type="curve"/>
      <point x="1064" y="1324" type="line"/>
      <point x="912" y="1354"/>
      <point x="682" y="1400"/>
      <point x="564" y="1400" type="curve" smooth="yes"/>
      <point x="208" y="1400"/>
      <point x="50" y="1224"/>
      <point x="50" y="956" type="curve" smooth="yes"/>
      <point x="50" y="704"/>
      <point x="188" y="602"/>
      <point x="424" y="540" type="curve" smooth="yes"/>
      <point x="554" y="506"/>
      <point x="646" y="480"/>
      <point x="646" y="414" type="curve" smooth="yes"/>
      <point x="646" y="360"/>
      <point x="608" y="332"/>
      <point x="522" y="332" type="curve" smooth="yes"/>
      <point x="490" y="332"/>
      <point x="294" y="384"/>
      <point x="106" y="446" type="curve"/>
      <point x="74" y="34" type="line"/>
      <point x="248" y="2"/>
      <point x="468" y="-30"/>
    </contour>
    <contour>
      <point x="422" y="-274" type="curve"/>
      <point x="786" y="-274" type="line"/>
      <point x="780" y="-114"/>
      <point x="774" y="56"/>
      <point x="768" y="186" type="curve"/>
      <point x="440" y="186" type="line"/>
      <point x="434" y="56"/>
      <point x="428" y="-114"/>
    </contour>
    <contour>
      <point x="436" y="1208" type="curve"/>
      <point x="772" y="1208" type="line"/>
      <point x="776" y="1326"/>
      <point x="782" y="1470"/>
      <point x="786" y="1606" type="curve"/>
      <point x="422" y="1606" type="line"/>
      <point x="426" y="1470"/>
      <point x="432" y="1326"/>
    </contour>
  </outline>
</glyph>
<glyph name="gravecomb.case" format="2">
  <anchor x="600" y="1004" name="_top"/>
  <anchor x="600" y="1498" name="top"/>
  <outline>
    <contour>
      <point x="554" y="1106" type="curve"/>
      <point x="832" y="1110" type="line"/>
      <point x="774" y="1248"/>
      <point x="718" y="1378"/>
      <point x="662" y="1512" type="curve"/>
      <point x="176" y="1502" type="line"/>
      <point x="244" y="1402"/>
      <point x="420" y="1232"/>
    </contour>
  </outline>
</glyph>
<glyph name="hungarumlautcomb.case" format="2">
  <anchor x="600" y="1004" name="_top"/>
  <anchor x="600" y="1514" name="top"/>
  <outline>
    <contour>
      <point x="648" y="1106" type="curve"/>
      <point x="908" y="1110" type="line"/>
      <point x="1042" y="1236"/>
      <point x="1202" y="1410"/>
      <point x="1270" y="1512" type="curve"/>
      <point x="818" y="1502" type="line"/>
      <point x="762" y="1372"/>
      <point x="706" y="1242"/>
    </contour>
    <contour>
      <point x="190" y="1106" type="curve"/>
      <point x="434" y="1110" type="line"/>
      <point x="550" y="1236"/>
      <point x="684" y="1410"/>
      <point x="738" y="1512" type="curve"/>
      <point x="308" y="1502" type="line"/>
      <point x="270" y="1372"/>
      <point x="230" y="1242"/>
    </contour>
  </outline>
</glyph>
<glyph name="naira.BRACKET.140" format="2">
  <advance width="1708"/>
  <outline>
    <contour>
      <point x="196" y="0" type="curve"/>
      <point x="706" y="0" type="line"/>
      <point x="694" y="142"/>
      <point x="684" y="266"/>
      <point x="670" y="440" type="curve"/>
      <point x="670" y="600" type="line"/>
      <point x="700" y="600" type="line"/>
      <point x="848" y="364" type="line"/>
      <point x="922" y="224"/>
      <point x="984" y="106"/>
      <point x="1040" y="0" type="curve"/>
      <point x="1512" y="0" type="line"/>
      <point x="1500" y="142"/>
      <point x="1490" y="264"/>
      <point x="1476" y="440" type="curve"/>
      <point x="1476" y="922" type="line"/>
      <point x="1490" y="1104"/>
      <point x="1500" y="1234"/>
      <point x="1512" y="1380" type="curve"/>
      <point x="1002" y="1380" type="line"/>
      <point x="1014" y="1230"/>
      <point x="1024" y="1102"/>
      <point x="1038" y="922" type="curve"/>
      <point x="1038" y="792" type="line"/>
      <point x="1006" y="792" type="line"/>
      <point x="858" y="1026" type="line"/>
      <point x="796" y="1142"/>
      <point x="736" y="1256"/>
      <point x="670" y="1380" type="curve"/>
      <point x="196" y="1380" type="line"/>
      <point x="208" y="1232"/>
      <point x="218" y="1104"/>
      <point x="232" y="922" type="curve"/>
      <point x="232" y="440" type="line"/>
      <point x="218" y="266"/>
      <point x="208" y="142"/>
    </contour>
    <contour>
      <point x="50" y="550" type="line"/>
      <point x="200" y="556"/>
      <point x="350" y="562"/>
      <point x="464" y="566" type="curve"/>
      <point x="464" y="866" type="line"/>
      <point x="350" y="870"/>
      <point x="200" y="876"/>
      <point x="50" y="882" type="curve"/>
    </contour>
    <contour>
      <point x="1246" y="566" type="line"/>
      <point x="1360" y="562"/>
      <point x="1510" y="556"/>
      <point x="1658" y="550" type="curve"/>
      <point x="1658" y="882" type="line"/>
      <point x="1510" y="876"/>
      <point x="1360" y="870"/>
      <point x="1246" y="866" type="curve"/>
    </contour>
  </outline>
</glyph>
<glyph name="one.dnom" format="2">
  <advance width="714"/>
  <outline>
    <contour>
      <point x="100" y="466" type="line"/>
      <point x="226" y="526"/>
      <point x="338" y="580"/>
      <point x="444" y="630" type="curve"/>
      <point x="458" y="932" type="line"/>
      <point x="310" y="878"/>
      <point x="162" y="826"/>
      <point x="8" y="770" type="curve"/>
    </contour>
    <contour>
      <point x="246" y="0" type="curve"/>
      <point x="642" y="0" type="line"/>
      <point x="634" y="94"/>
      <point x="628" y="174"/>
      <point x="618" y="288" type="curve"/>
      <point x="618" y="594" type="line"/>
      <point x="626" y="702"/>
      <point x="634" y="812"/>
      <point x="642" y="924" type="curve"/>
      <point x="458" y="932" type="line"/>
      <point x="250" y="788" type="line"/>
      <point x="256" y="700"/>
      <point x="262" y="614"/>
      <point x="270" y="522" type="curve"/>
      <point x="270" y="288" type="line"/>
      <point x="260" y="174"/>
      <point x="254" y="94"/>
    </contour>
  </outline>
</glyph>
<glyph name="seven.dnom" format="2">
  <advance width="864"/>
  <outline>
    <contour>
      <point x="74" y="0" type="curve"/>
      <point x="510" y="0" type="line"/>
      <point x="544" y="94"/>
      <point x="576" y="186"/>
      <point x="610" y="280" type="curve"/>
      <point x="686" y="442" type="line"/>
      <point x="730" y="522"/>
      <point x="774" y="606"/>
      <point x="818" y="686" type="curve"/>
      <point x="818" y="940" type="line"/>
      <point x="38" y="940" type="line"/>
      <point x="38" y="616" type="line"/>
      <point x="150" y="628"/>
      <point x="248" y="638"/>
      <point x="348" y="648" type="curve"/>
      <point x="522" y="648" type="line"/>
      <point x="418" y="720" type="line"/>
      <point x="398" y="662"/>
      <point x="378" y="604"/>
      <point x="358" y="546" type="curve"/>
      <point x="242" y="308" type="line"/>
      <point x="186" y="206"/>
      <point x="132" y="106"/>
    </contour>
  </outline>
</glyph>
